<svg width="20" height="25" viewBox="0 0 20 25" fill="none" xmlns="http://www.w3.org/2000/svg">
<path d="M10 0C4.47937 0 0 3.59989 0 8.03571C0 15.1786 10 25 10 25C10 25 20 15.1786 20 8.03571C20 3.59989 15.5206 0 10 0ZM10 12.5C9.20887 12.5 8.43552 12.2905 7.77772 11.8981C7.11992 11.5057 6.60723 10.9479 6.30448 10.2953C6.00173 9.6427 5.92252 8.92461 6.07686 8.23182C6.2312 7.53903 6.61216 6.90266 7.17157 6.40319C7.73098 5.90372 8.44372 5.56357 9.21964 5.42577C9.99556 5.28796 10.7998 5.35869 11.5307 5.629C12.2616 5.89931 12.8864 6.35707 13.3259 6.94439C13.7654 7.53171 14 8.22221 14 8.92857C13.9988 9.87546 13.577 10.7833 12.8271 11.4528C12.0773 12.1224 11.0605 12.499 10 12.5Z" fill="white"/>
</svg>
