<svg width="30" height="31" viewBox="0 0 30 31" fill="none" xmlns="http://www.w3.org/2000/svg">
<g clip-path="url(#clip0_164_1126)">
<path d="M22.7971 0.591797H6.98277C3.12953 0.591797 0.00585938 3.69958 0.00585938 7.53322V23.2671C0.00585938 27.1007 3.12953 30.2085 6.98277 30.2085H22.7971C26.6503 30.2085 29.774 27.1007 29.774 23.2671V7.53322C29.774 3.69958 26.6503 0.591797 22.7971 0.591797Z" fill="white"/>
<path d="M22.7971 0.591797H6.98277C3.12953 0.591797 0.00585938 3.69958 0.00585938 7.53322V23.2671C0.00585938 27.1007 3.12953 30.2085 6.98277 30.2085H22.7971C26.6503 30.2085 29.774 27.1007 29.774 23.2671V7.53322C29.774 3.69958 26.6503 0.591797 22.7971 0.591797Z" fill="#1D9BF0"/>
<path d="M23.2124 11.1675C23.2252 11.3511 23.2252 11.5347 23.2252 11.72C23.2252 17.3654 18.9056 23.8762 11.0069 23.8762V23.8727C8.67352 23.8761 6.38845 23.2112 4.42456 21.9574C4.76387 21.9981 5.10481 22.0183 5.44668 22.0191C7.38067 22.0206 9.25904 21.3753 10.7799 20.1867C9.88385 20.1699 9.01545 19.8748 8.29614 19.3429C7.57684 18.8109 7.04259 18.0687 6.7681 17.2198C7.41146 17.3432 8.07471 17.3181 8.70675 17.1462C6.70345 16.7435 5.26214 14.9923 5.26214 12.9585V12.9043C5.85935 13.2353 6.52773 13.4187 7.21102 13.4391C5.32423 12.1844 4.74259 9.68698 5.88192 7.73436C6.96 9.05427 8.30511 10.1338 9.82986 10.9028C11.3546 11.6718 13.0249 12.113 14.7322 12.1979C14.562 11.4689 14.5872 10.7082 14.8052 9.99183C15.0232 9.2755 15.4264 8.62867 15.9745 8.11603C17.7041 6.49844 20.4242 6.58139 22.0501 8.30125C23.0117 8.11235 23.934 7.7616 24.777 7.26408C24.4564 8.25331 23.7856 9.093 22.8893 9.62694C23.7406 9.52716 24.5719 9.30045 25.3553 8.95443C24.779 9.81308 24.0534 10.5624 23.2124 11.1675Z" fill="white"/>
</g>
<defs>
<clipPath id="clip0_164_1126">
<rect width="29.7681" height="29.6167" fill="white" transform="translate(0.00585938 0.591797)"/>
</clipPath>
</defs>
</svg>
