<svg width="31" height="31" viewBox="0 0 31 31" fill="none" xmlns="http://www.w3.org/2000/svg">
<g clip-path="url(#clip0_164_1121)">
<path d="M23.7639 0.591797H7.94956C4.09632 0.591797 0.972656 3.69958 0.972656 7.53322V23.2671C0.972656 27.1007 4.09632 30.2085 7.94956 30.2085H23.7639C27.6171 30.2085 30.7408 27.1007 30.7408 23.2671V7.53322C30.7408 3.69958 27.6171 0.591797 23.7639 0.591797Z" fill="white"/>
<path d="M23.7639 0.591797H7.94956C4.09632 0.591797 0.972656 3.69958 0.972656 7.53322V23.2671C0.972656 27.1007 4.09632 30.2085 7.94956 30.2085H23.7639C27.6171 30.2085 30.7408 27.1007 30.7408 23.2671V7.53322C30.7408 3.69958 27.6171 0.591797 23.7639 0.591797Z" fill="#0A66C2"/>
<path d="M22.4516 25.7761H25.8552C25.9786 25.7761 26.0968 25.7274 26.1841 25.6406C26.2713 25.5538 26.3203 25.4362 26.3203 25.3135L26.3221 18.1589C26.3221 14.4195 25.5122 11.5451 21.1199 11.5451C19.4502 11.4834 17.8756 12.3397 17.0259 13.7696C17.0218 13.7766 17.0155 13.782 17.0079 13.785C17.0004 13.7881 16.9921 13.7886 16.9842 13.7864C16.9764 13.7843 16.9695 13.7797 16.9645 13.7733C16.9595 13.7669 16.9568 13.7591 16.9567 13.751V12.3531C16.9567 12.2304 16.9077 12.1127 16.8205 12.0259C16.7333 11.9391 16.615 11.8904 16.4916 11.8904H13.2617C13.1383 11.8904 13.02 11.9391 12.9328 12.0259C12.8455 12.1127 12.7965 12.2304 12.7965 12.3531V25.3128C12.7965 25.4355 12.8455 25.5532 12.9328 25.64C13.02 25.7268 13.1383 25.7755 13.2617 25.7755H16.665C16.7884 25.7755 16.9067 25.7268 16.9939 25.64C17.0811 25.5532 17.1301 25.4355 17.1301 25.3128V18.9066C17.1301 17.0953 17.4755 15.3411 19.7326 15.3411C21.9577 15.3411 21.9865 17.4138 21.9865 19.0239V25.3133C21.9865 25.4361 22.0355 25.5538 22.1227 25.6406C22.21 25.7273 22.3283 25.7761 22.4516 25.7761ZM5.39136 7.49043C5.39136 8.86298 6.52708 9.99235 7.90677 9.99235C9.2861 9.99223 10.4211 8.86217 10.4211 7.48985C10.4209 6.11753 9.28575 4.98828 7.9063 4.98828C6.5265 4.98828 5.39136 6.11788 5.39136 7.49043ZM6.20056 25.7761H9.60843C9.73179 25.7761 9.8501 25.7273 9.93733 25.6406C10.0246 25.5538 10.0736 25.4361 10.0736 25.3133V12.3531C10.0736 12.2304 10.0246 12.1127 9.93733 12.0259C9.8501 11.9391 9.73179 11.8904 9.60843 11.8904H6.20056C6.0772 11.8904 5.9589 11.9391 5.87167 12.0259C5.78444 12.1127 5.73544 12.2304 5.73544 12.3531V25.3133C5.73544 25.4361 5.78444 25.5538 5.87167 25.6406C5.9589 25.7273 6.0772 25.7761 6.20056 25.7761Z" fill="white"/>
</g>
<defs>
<clipPath id="clip0_164_1121">
<rect width="29.7681" height="29.6167" fill="white" transform="translate(0.972656 0.591797)"/>
</clipPath>
</defs>
</svg>
