<svg width="30" height="28" viewBox="0 0 30 28" fill="none" xmlns="http://www.w3.org/2000/svg">
<path d="M0.157625 13.6681C0.156811 16.0771 0.839036 18.4288 2.13604 20.5017L0.0332031 27.5845L7.89048 25.684C10.0554 26.7729 12.4929 27.347 14.9732 27.3478H14.9796C23.1482 27.3478 29.7979 21.2154 29.8013 13.679C29.8027 10.0266 28.2622 6.59214 25.464 4.00851C22.6655 1.42521 18.9445 0.0015018 14.9796 0C6.80964 0 0.160881 6.13163 0.157625 13.6681ZM4.83692 20.1447L4.54354 19.7151C3.31026 17.906 2.65931 15.8155 2.66024 13.6689C2.6628 7.40483 8.18898 2.30848 14.9843 2.30848C18.275 2.30977 21.3677 3.49318 23.6938 5.64032C26.0197 7.78768 27.2997 10.6422 27.2988 13.6782C27.2958 19.9423 21.7695 25.0393 14.9796 25.0393H14.9747C12.7639 25.0382 10.5955 24.4905 8.70457 23.4554L8.25456 23.2092L3.59189 24.337L4.83692 20.1447Z" fill="url(#paint0_linear_164_1134)"/>
<defs>
<linearGradient id="paint0_linear_164_1134" x1="1488.44" y1="2758.45" x2="1488.44" y2="0" gradientUnits="userSpaceOnUse">
<stop stop-color="#F9F9F9"/>
<stop offset="1" stop-color="white"/>
</linearGradient>
</defs>
</svg>
