<svg width="20" height="20" viewBox="0 0 20 20" fill="none" xmlns="http://www.w3.org/2000/svg">
<path d="M10 0C4.4768 0 0 4.47813 0 10.0005C0 15.5229 4.4768 20 10 20C15.5232 20 20 15.5232 20 10.0005C20 4.47787 15.5232 0 10 0ZM2.77253 11.3251H4.3064C4.56307 13.2575 5.38144 15.072 6.66 16.5435C4.65973 15.5184 3.18933 13.6043 2.77253 11.3251ZM4.3064 8.67467H2.77253C3.1896 6.39573 4.66 4.4816 6.66027 3.45653C5.38166 4.92793 4.56319 6.74234 4.3064 8.67467ZM8.67467 14.8157C7.81036 13.8245 7.22886 12.6188 6.9912 11.3253H8.67467V14.8157ZM8.67467 8.67467H6.9912C7.22928 7.38139 7.81074 6.17593 8.67467 5.18453V8.67467ZM17.2272 8.67467H15.6936C15.4369 6.74249 14.6186 4.92819 13.3403 3.4568C15.34 4.48213 16.8104 6.39627 17.2272 8.67467ZM11.3253 14.8152V11.3251H13.0088C12.7707 12.6183 12.1893 13.8238 11.3253 14.8152ZM11.3253 8.67467V5.18427C12.1896 6.17552 12.7711 7.38118 13.0088 8.67467H11.3253ZM13.3395 16.5437C14.6183 15.0722 15.4368 13.2576 15.6936 11.3251H17.2275C16.8107 13.6045 15.34 15.5187 13.3395 16.5437Z" fill="white"/>
</svg>
