<svg width="16" height="14" viewBox="0 0 16 14" fill="none" xmlns="http://www.w3.org/2000/svg">
<path d="M4.11317 0.786967C3.82784 0.202106 3.52757 0.190304 3.25624 0.180047C3.03406 0.171224 2.78007 0.171886 2.52632 0.171886C2.27233 0.171886 1.85965 0.260007 1.51083 0.611277C1.16165 0.962877 0.177734 1.81254 0.177734 3.54065C0.177734 5.26877 1.54252 6.93898 1.73277 7.17356C1.92327 7.40771 4.36751 11.0675 8.23861 12.4755C11.4558 13.6455 12.1105 13.4128 12.8088 13.3541C13.5071 13.2957 15.0622 12.5047 15.3794 11.6845C15.6969 10.8644 15.6969 10.1614 15.6017 10.0145C15.5065 9.86814 15.2526 9.78024 14.8717 9.60466C14.4908 9.42908 12.6183 8.5792 12.2692 8.46196C11.92 8.34483 11.6662 8.28638 11.4122 8.63809C11.1582 8.98925 10.4289 9.78024 10.2066 10.0145C9.9845 10.2493 9.7622 10.2785 9.38145 10.1028C9.00034 9.92659 7.7738 9.55613 6.31861 8.35961C5.18641 7.42855 4.42204 6.27879 4.19986 5.92708C3.97768 5.57592 4.17607 5.38556 4.36704 5.21054C4.53816 5.05315 4.74802 4.80037 4.93864 4.59535C5.12853 4.39021 5.19191 4.24386 5.31891 4.0096C5.44602 3.77513 5.3824 3.56999 5.28734 3.3943C5.19191 3.21861 4.45182 1.48145 4.11317 0.786967Z" fill="white"/>
</svg>
