<svg width="440" height="403" viewBox="0 0 440 403" fill="none" xmlns="http://www.w3.org/2000/svg">
<path d="M64.3756 372.325C150.21 413.23 289.379 413.23 375.213 372.325C461.047 331.42 461.047 265.09 375.213 224.175C289.379 183.259 150.21 183.269 64.3756 224.175C-21.4585 265.08 -21.4585 331.41 64.3756 372.325Z" fill="#F0F0F0"/>
<path d="M234.792 347.347C248.872 347.347 260.287 341.906 260.287 335.196C260.287 328.485 248.872 323.044 234.792 323.044C220.712 323.044 209.297 328.485 209.297 335.196C209.297 341.906 220.712 347.347 234.792 347.347Z" fill="#E0E0E0"/>
<path d="M113.965 228.506L67.9525 201.938L21.9305 228.506L67.9525 255.074L113.965 228.506Z" fill="#F0F0F0"/>
<path d="M67.9524 290.505L113.964 263.937V228.506L67.9524 255.074V290.505Z" fill="#EBEBEB"/>
<path d="M74.8279 282.288C74.7369 282.29 74.6472 282.266 74.5695 282.219C74.4764 282.158 74.4014 282.074 74.3524 281.974C74.3034 281.874 74.2823 281.763 74.2913 281.652V281.006C74.2913 280.943 74.3165 280.883 74.3612 280.838C74.4059 280.793 74.4665 280.768 74.5298 280.768C74.5606 280.768 74.5912 280.774 74.6196 280.786C74.648 280.798 74.6736 280.816 74.695 280.838C74.7163 280.861 74.733 280.887 74.7439 280.916C74.7547 280.945 74.7596 280.976 74.7583 281.006V281.652C74.7583 281.752 74.7583 281.801 74.7583 281.811C74.7583 281.821 74.8279 281.811 74.9173 281.811C75.0609 281.673 75.1741 281.506 75.2494 281.321C75.3246 281.136 75.3604 280.938 75.3544 280.738V276.545C75.3544 276.485 75.3785 276.427 75.4214 276.384C75.4642 276.341 75.5224 276.317 75.583 276.317C75.6138 276.316 75.6446 276.32 75.6735 276.331C75.7024 276.342 75.7287 276.359 75.751 276.38C75.7733 276.402 75.791 276.427 75.8031 276.456C75.8152 276.484 75.8215 276.515 75.8214 276.545V280.659C75.832 280.94 75.7774 281.22 75.6619 281.477C75.5464 281.734 75.3732 281.96 75.1557 282.139C75.0589 282.213 74.9469 282.264 74.8279 282.288Z" fill="#E0E0E0"/>
<path d="M72.3241 278.672V278.264C72.3758 277.219 72.6725 276.2 73.1902 275.291C73.708 274.381 74.4323 273.606 75.3048 273.028C75.6173 272.754 76.0081 272.584 76.422 272.543C76.836 272.503 77.2523 272.593 77.6122 272.802C77.9721 273.01 78.2576 273.326 78.4283 273.706C78.599 274.085 78.6463 274.508 78.5637 274.916V275.045L72.3241 278.672ZM76.7554 273.078C76.3387 273.093 75.9338 273.22 75.583 273.445C74.8323 273.934 74.1965 274.58 73.7196 275.338C73.2428 276.096 72.9361 276.949 72.8209 277.837L78.1265 274.777C78.1448 274.479 78.0869 274.181 77.9582 273.912C77.8296 273.642 77.6345 273.41 77.3913 273.237C77.2031 273.109 76.9827 273.037 76.7554 273.028V273.078Z" fill="#E0E0E0"/>
<path d="M83.2832 277.449C83.2226 277.449 83.1644 277.425 83.1216 277.383C83.0787 277.34 83.0547 277.282 83.0547 277.221V270.445C83.0475 270.41 83.0481 270.374 83.0565 270.34C83.0649 270.305 83.0808 270.273 83.1032 270.246C83.1256 270.218 83.1538 270.196 83.1858 270.181C83.2177 270.166 83.2527 270.158 83.2881 270.158C83.3236 270.158 83.3585 270.166 83.3905 270.181C83.4225 270.196 83.4507 270.218 83.4731 270.246C83.4954 270.273 83.5114 270.305 83.5198 270.34C83.5282 270.374 83.5288 270.41 83.5216 270.445V277.221C83.5217 277.252 83.5154 277.282 83.5033 277.311C83.4912 277.339 83.4735 277.365 83.4512 277.386C83.4289 277.408 83.4026 277.424 83.3737 277.435C83.3448 277.446 83.314 277.451 83.2832 277.449Z" fill="#E0E0E0"/>
<path d="M82.5976 272.273C82.565 272.281 82.5308 272.281 82.4982 272.273C82.4697 272.261 82.4439 272.244 82.4224 272.221C82.4008 272.199 82.384 272.173 82.3728 272.144C82.3617 272.116 82.3565 272.085 82.3576 272.054C82.3586 272.023 82.3659 271.993 82.379 271.965L83.2235 269.978L84.1575 271.061C84.1994 271.105 84.2228 271.164 84.2228 271.225C84.2228 271.286 84.1994 271.344 84.1575 271.389C84.1353 271.411 84.109 271.429 84.08 271.441C84.0511 271.453 84.02 271.459 83.9886 271.459C83.9572 271.459 83.9261 271.453 83.8971 271.441C83.8682 271.429 83.8418 271.411 83.8197 271.389L83.3726 270.872L82.8361 272.124C82.8172 272.171 82.784 272.211 82.7411 272.237C82.6983 272.264 82.648 272.277 82.5976 272.273Z" fill="#E0E0E0"/>
<path d="M85.469 276.207C85.4058 276.207 85.3451 276.182 85.3004 276.138C85.2557 276.093 85.2306 276.032 85.2306 275.969V269.203C85.2306 269.14 85.2557 269.079 85.3004 269.034C85.3451 268.989 85.4058 268.964 85.469 268.964C85.5323 268.964 85.5929 268.989 85.6377 269.034C85.6824 269.079 85.7075 269.14 85.7075 269.203V275.969C85.7075 276.032 85.6824 276.093 85.6377 276.138C85.5929 276.182 85.5323 276.207 85.469 276.207Z" fill="#E0E0E0"/>
<path d="M84.7636 271.031H84.6643C84.6358 271.019 84.61 271.002 84.5884 270.98C84.5668 270.957 84.55 270.931 84.5388 270.902C84.5277 270.874 84.5225 270.843 84.5236 270.812C84.5246 270.781 84.5319 270.751 84.545 270.723L85.3796 268.736L86.3732 269.809C86.4158 269.855 86.4395 269.915 86.4395 269.978C86.4395 270.04 86.4158 270.101 86.3732 270.147C86.3279 270.187 86.2696 270.208 86.2093 270.208C86.1489 270.208 86.0906 270.187 86.0453 270.147L85.5982 269.63L85.0518 270.882C85.044 270.912 85.0301 270.939 85.011 270.963C84.9919 270.987 84.9679 271.006 84.9408 271.02C84.9136 271.034 84.8838 271.043 84.8533 271.044C84.8228 271.046 84.7922 271.042 84.7636 271.031Z" fill="#E0E0E0"/>
<path d="M67.9525 290.505L21.9305 263.937V228.506L67.9525 255.074V290.505Z" fill="#E0E0E0"/>
<path d="M43.2028 276.217L46.6703 278.224V242.794L43.2028 240.787V276.217Z" fill="#EBEBEB"/>
<path d="M94.262 246.53L87.6548 250.335C86.9946 250.713 86.4301 251.237 86.0046 251.868C85.5791 252.498 85.3041 253.218 85.2007 253.971C85.2007 255.194 86.3035 255.551 87.6548 254.766L94.262 250.961C94.9203 250.582 95.4829 250.057 95.9067 249.427C96.3304 248.796 96.6039 248.077 96.7062 247.324C96.6863 246.102 95.6132 245.745 94.262 246.53Z" fill="#E0E0E0"/>
<path d="M46.6703 242.794L92.6923 216.226L89.2247 214.219L43.2028 240.787L46.6703 242.794Z" fill="#FAFAFA"/>
<path d="M89.2247 242.794L43.2028 216.226L46.6703 214.219L92.6923 240.787L89.2247 242.794Z" fill="#FAFAFA"/>
<g style="mix-blend-mode:multiply" opacity="0.8">
<path d="M23.9375 227.344L68.0618 252.789L112.037 227.404L67.9525 201.938L23.9375 227.344Z" fill="#E0E0E0"/>
</g>
<path d="M89.2247 246.351V242.794L92.6923 240.787V244.344L89.2247 246.351Z" fill="#F0F0F0"/>
<path d="M111.898 188.654L65.8759 162.087L19.8539 188.654L65.8759 215.222L111.898 188.654Z" fill="#F0F0F0"/>
<g style="mix-blend-mode:multiply" opacity="0.8">
<path d="M23.7686 189.062L67.4755 214.298L111.898 188.654L68.1909 163.418L23.7686 189.062Z" fill="#E0E0E0"/>
</g>
<path d="M65.8759 250.653L111.898 224.075V188.655L65.8759 215.223V250.653Z" fill="#EBEBEB"/>
<path d="M72.7414 242.436C72.6511 242.433 72.5627 242.409 72.4831 242.367C72.39 242.306 72.315 242.221 72.266 242.122C72.217 242.022 72.1959 241.911 72.2049 241.8V241.154C72.1977 241.12 72.1983 241.084 72.2067 241.05C72.2151 241.015 72.2311 240.983 72.2535 240.956C72.2758 240.928 72.304 240.906 72.336 240.891C72.368 240.875 72.403 240.868 72.4384 240.868C72.4738 240.868 72.5088 240.875 72.5408 240.891C72.5728 240.906 72.601 240.928 72.6234 240.956C72.6457 240.983 72.6617 241.015 72.6701 241.05C72.6785 241.084 72.6791 241.12 72.6719 241.154V241.8C72.6719 241.9 72.6719 241.949 72.6719 241.959C72.6719 241.969 72.7414 241.959 72.8209 241.91C72.9664 241.775 73.0808 241.61 73.1563 241.426C73.2318 241.242 73.2665 241.045 73.2581 240.846V236.654C73.2581 236.59 73.2832 236.53 73.3279 236.485C73.3727 236.44 73.4333 236.415 73.4966 236.415C73.5598 236.415 73.6204 236.44 73.6652 236.485C73.7099 236.53 73.735 236.59 73.735 236.654V240.846C73.7475 241.128 73.6928 241.408 73.5753 241.664C73.4577 241.919 73.2809 242.143 73.0594 242.317C72.9653 242.383 72.8558 242.424 72.7414 242.436Z" fill="#E0E0E0"/>
<path d="M70.2574 238.76V238.353C70.3107 237.309 70.6081 236.292 71.1258 235.385C71.6435 234.477 72.367 233.704 73.2381 233.126C73.5506 232.857 73.939 232.692 74.3496 232.653C74.7601 232.615 75.1725 232.705 75.5296 232.911C75.8866 233.118 76.1706 233.43 76.3422 233.805C76.5137 234.18 76.5644 234.599 76.4871 235.004V235.143L70.2574 238.76ZM74.6887 233.166C74.27 233.187 73.8633 233.314 73.5064 233.534C72.7582 234.026 72.125 234.675 71.65 235.434C71.1751 236.194 70.8695 237.047 70.7542 237.935L76.0599 234.875C76.0791 234.577 76.0216 234.279 75.8929 234.009C75.7642 233.74 75.5685 233.508 75.3246 233.335C75.1317 233.223 74.912 233.164 74.6887 233.166Z" fill="#E0E0E0"/>
<path d="M81.2166 237.598C81.1534 237.598 81.0927 237.572 81.048 237.528C81.0033 237.483 80.9781 237.422 80.9781 237.359V230.593C80.9781 230.53 81.0033 230.469 81.048 230.424C81.0927 230.38 81.1534 230.354 81.2166 230.354C81.2798 230.354 81.3405 230.38 81.3852 230.424C81.4299 230.469 81.4551 230.53 81.4551 230.593V237.359C81.4551 237.422 81.4299 237.483 81.3852 237.528C81.3405 237.572 81.2798 237.598 81.2166 237.598Z" fill="#E0E0E0"/>
<path d="M80.531 232.421H80.4316C80.4031 232.409 80.3773 232.392 80.3557 232.37C80.3342 232.347 80.3173 232.321 80.3062 232.292C80.295 232.264 80.2898 232.233 80.2909 232.202C80.292 232.171 80.2993 232.141 80.3124 232.113L81.147 230.176L82.1405 231.249C82.1831 231.295 82.2068 231.355 82.2068 231.417C82.2068 231.48 82.1831 231.54 82.1405 231.586C82.0952 231.626 82.0369 231.648 81.9766 231.648C81.9163 231.648 81.858 231.626 81.8127 231.586L81.3656 231.07L80.8191 232.322C80.7917 232.371 80.7472 232.408 80.694 232.426C80.6408 232.445 80.5828 232.443 80.531 232.421Z" fill="#E0E0E0"/>
<path d="M83.4024 236.356C83.3392 236.356 83.2785 236.33 83.2338 236.286C83.1891 236.241 83.1639 236.18 83.1639 236.117V229.341C83.1639 229.278 83.1891 229.217 83.2338 229.172C83.2785 229.128 83.3392 229.103 83.4024 229.103C83.4656 229.103 83.5263 229.128 83.571 229.172C83.6157 229.217 83.6409 229.278 83.6409 229.341V236.117C83.6409 236.18 83.6157 236.241 83.571 236.286C83.5263 236.33 83.4656 236.356 83.4024 236.356Z" fill="#E0E0E0"/>
<path d="M82.7069 231.179H82.6175C82.5592 231.153 82.5133 231.105 82.4892 231.046C82.4652 230.987 82.4649 230.921 82.4884 230.861L83.3329 228.924L84.2668 230.007C84.2891 230.029 84.3067 230.055 84.3188 230.084C84.3308 230.113 84.337 230.144 84.337 230.176C84.337 230.207 84.3308 230.238 84.3188 230.267C84.3067 230.296 84.2891 230.322 84.2668 230.344C84.2209 230.387 84.1606 230.411 84.0979 230.411C84.0353 230.411 83.975 230.387 83.929 230.344L83.4919 229.828L82.9454 231.08C82.9186 231.117 82.8822 231.145 82.8401 231.163C82.7981 231.18 82.752 231.186 82.7069 231.179Z" fill="#E0E0E0"/>
<path d="M65.8759 250.653L19.8539 224.075V188.655L65.8759 215.223V250.653Z" fill="#E0E0E0"/>
<path d="M41.1361 236.366L44.6037 238.363V202.942L41.1361 200.935V236.366Z" fill="#EBEBEB"/>
<path d="M92.1855 206.678L85.5883 210.483C84.9281 210.861 84.3635 211.385 83.938 212.016C83.5126 212.646 83.2375 213.366 83.1342 214.119C83.1342 215.342 84.237 215.699 85.5883 214.914L92.1855 211.099C92.8489 210.728 93.4163 210.206 93.8423 209.577C94.2684 208.947 94.5415 208.226 94.6397 207.473C94.6397 206.25 93.5467 205.893 92.1855 206.678Z" fill="#E0E0E0"/>
<path d="M44.6037 202.942L90.6256 176.374L87.1581 174.367L41.1361 200.935L44.6037 202.942Z" fill="#FAFAFA"/>
<path d="M87.1581 202.942L41.1361 176.374L44.6037 174.367L90.6256 200.935L87.1581 202.942Z" fill="#FAFAFA"/>
<path d="M87.1581 206.499V202.942L90.6256 200.935V204.492L87.1581 206.499Z" fill="#F0F0F0"/>
<g style="mix-blend-mode:multiply" opacity="0.8">
<path d="M67.4755 214.298L71.6186 216.693L111.898 193.434V188.655L67.4755 214.298Z" fill="#E0E0E0"/>
</g>
<path d="M116.508 153.224L70.496 126.656L24.474 153.224L70.496 179.792L116.508 153.224Z" fill="#F0F0F0"/>
<path d="M70.496 215.222L116.508 188.654V153.224L70.496 179.792V215.222Z" fill="#EBEBEB"/>
<path d="M77.3516 207.006C77.2636 207.009 77.1769 206.984 77.1032 206.936C77.0075 206.878 76.9299 206.794 76.879 206.694C76.8281 206.594 76.806 206.482 76.8151 206.37V205.724C76.8151 205.661 76.8402 205.6 76.8849 205.555C76.9297 205.511 76.9903 205.486 77.0536 205.486C77.1168 205.486 77.1775 205.511 77.2222 205.555C77.2669 205.6 77.292 205.661 77.292 205.724V206.37C77.292 206.469 77.292 206.519 77.292 206.529C77.292 206.539 77.3616 206.529 77.451 206.529C77.5965 206.394 77.7109 206.229 77.7864 206.045C77.8618 205.862 77.8966 205.664 77.8882 205.466V201.273C77.881 201.238 77.8816 201.202 77.89 201.168C77.8984 201.133 77.9143 201.101 77.9367 201.074C77.9591 201.046 77.9873 201.024 78.0193 201.009C78.0512 200.994 78.0862 200.986 78.1216 200.986C78.1571 200.986 78.192 200.994 78.224 201.009C78.256 201.024 78.2842 201.046 78.3066 201.074C78.3289 201.101 78.3449 201.133 78.3533 201.168C78.3617 201.202 78.3623 201.238 78.3551 201.273V205.466C78.3656 205.746 78.311 206.024 78.1955 206.279C78.0799 206.535 77.9067 206.759 77.6894 206.936C77.5831 206.983 77.4679 207.007 77.3516 207.006Z" fill="#E0E0E0"/>
<path d="M74.8279 203.339V202.932C74.8819 201.887 75.1796 200.87 75.6971 199.96C76.2147 199.051 76.9378 198.276 77.8086 197.696C78.1211 197.421 78.5119 197.252 78.9258 197.211C79.3398 197.171 79.7561 197.261 80.116 197.469C80.4759 197.678 80.7613 197.994 80.932 198.373C81.1027 198.753 81.1501 199.176 81.0675 199.584V199.713L74.8279 203.339ZM79.2592 197.746C78.8425 197.761 78.4375 197.888 78.0868 198.113C77.3374 198.603 76.7027 199.249 76.226 200.007C75.7493 200.765 75.4418 201.617 75.3247 202.505L80.6303 199.445C80.6478 199.148 80.5906 198.851 80.4639 198.582C80.3372 198.313 80.145 198.08 79.905 197.905C79.7194 197.802 79.511 197.747 79.2989 197.746H79.2592Z" fill="#E0E0E0"/>
<path d="M85.8268 202.167C85.7959 202.167 85.7653 202.161 85.7369 202.149C85.7085 202.137 85.6829 202.119 85.6615 202.097C85.6402 202.074 85.6236 202.048 85.6127 202.019C85.6018 201.99 85.5969 201.959 85.5982 201.929V195.212C85.591 195.177 85.5917 195.142 85.6001 195.107C85.6085 195.073 85.6244 195.041 85.6468 195.013C85.6691 194.986 85.6973 194.963 85.7293 194.948C85.7613 194.933 85.7963 194.925 85.8317 194.925C85.8671 194.925 85.9021 194.933 85.9341 194.948C85.9661 194.963 85.9943 194.986 86.0167 195.013C86.039 195.041 86.055 195.073 86.0634 195.107C86.0718 195.142 86.0724 195.177 86.0652 195.212V201.988C86.0517 202.041 86.0207 202.087 85.9774 202.119C85.934 202.152 85.8809 202.169 85.8268 202.167Z" fill="#E0E0E0"/>
<path d="M85.1411 196.99C85.112 197 85.0808 197 85.0517 196.99C85.0223 196.98 84.9955 196.963 84.9729 196.941C84.9503 196.919 84.9324 196.893 84.9202 196.864C84.9081 196.836 84.9021 196.805 84.9025 196.773C84.9029 196.742 84.9097 196.711 84.9225 196.682L85.7671 194.695L86.701 195.778C86.723 195.8 86.7404 195.825 86.7523 195.853C86.7642 195.881 86.7703 195.912 86.7703 195.942C86.7703 195.973 86.7642 196.003 86.7523 196.031C86.7404 196.059 86.723 196.085 86.701 196.106C86.6789 196.128 86.6526 196.146 86.6236 196.158C86.5946 196.17 86.5635 196.176 86.5321 196.176C86.5007 196.176 86.4697 196.17 86.4407 196.158C86.4117 196.146 86.3854 196.128 86.3632 196.106L85.9161 195.59L85.3796 196.841C85.3608 196.888 85.3275 196.928 85.2847 196.955C85.2418 196.982 85.1915 196.994 85.1411 196.99Z" fill="#E0E0E0"/>
<path d="M88.0126 200.925C87.9818 200.926 87.951 200.921 87.9221 200.911C87.8932 200.9 87.8669 200.883 87.8446 200.862C87.8223 200.84 87.8046 200.815 87.7925 200.786C87.7804 200.758 87.7741 200.727 87.7742 200.696V193.92C87.7742 193.857 87.7993 193.796 87.844 193.752C87.8887 193.707 87.9494 193.682 88.0126 193.682C88.0759 193.682 88.1365 193.707 88.1812 193.752C88.226 193.796 88.2511 193.857 88.2511 193.92V200.696C88.2511 200.727 88.2449 200.758 88.2328 200.786C88.2207 200.815 88.203 200.84 88.1807 200.862C88.1584 200.883 88.132 200.9 88.1031 200.911C88.0743 200.921 88.0435 200.926 88.0126 200.925Z" fill="#E0E0E0"/>
<path d="M87.327 195.749H87.2276C87.1991 195.737 87.1733 195.719 87.1518 195.697C87.1302 195.675 87.1133 195.649 87.1022 195.62C87.0911 195.591 87.0859 195.56 87.0869 195.53C87.088 195.499 87.0953 195.468 87.1084 195.441L87.943 193.453L88.9366 194.526C88.9792 194.572 89.0028 194.633 89.0028 194.695C89.0028 194.758 88.9792 194.818 88.9366 194.864C88.9153 194.886 88.8898 194.904 88.8616 194.916C88.8335 194.927 88.8032 194.934 88.7726 194.934C88.742 194.934 88.7118 194.927 88.6836 194.916C88.6555 194.904 88.63 194.886 88.6087 194.864L88.1616 194.348L87.6151 195.599C87.6073 195.629 87.5934 195.657 87.5743 195.681C87.5552 195.704 87.5313 195.724 87.5041 195.738C87.477 195.752 87.4472 195.76 87.4167 195.762C87.3862 195.764 87.3556 195.759 87.327 195.749Z" fill="#E0E0E0"/>
<path d="M70.496 215.222L24.474 188.654V153.224L70.496 179.792V215.222Z" fill="#E0E0E0"/>
<path d="M45.7462 200.935L49.2138 202.942V167.511L45.7462 165.504V200.935Z" fill="#EBEBEB"/>
<path d="M96.8057 171.247L90.1984 175.062C89.5374 175.436 88.9724 175.958 88.5482 176.587C88.124 177.217 87.8521 177.936 87.7543 178.689C87.7543 179.911 88.8472 180.269 90.1984 179.484L96.8057 175.678C97.4658 175.301 98.0304 174.776 98.4559 174.146C98.8814 173.515 99.1564 172.796 99.2598 172.042C99.2598 170.82 98.1569 170.462 96.8057 171.247Z" fill="#E0E0E0"/>
<path d="M49.2138 167.511L95.2357 140.943L91.7682 138.936L45.7462 165.504L49.2138 167.511Z" fill="#FAFAFA"/>
<path d="M91.7682 167.511L45.7462 140.943L49.2138 138.936L95.2357 165.504L91.7682 167.511Z" fill="#FAFAFA"/>
<path d="M91.7682 171.068V167.511L95.2357 165.504V169.061L91.7682 171.068Z" fill="#F0F0F0"/>
<path d="M135.157 283.739V268.199C134.417 262.487 131.997 257.123 128.202 252.789C122.062 246.142 116.558 248.398 114.769 251.557C112.981 254.717 117.054 260.698 119.658 264.076C122.787 268.13 135.137 286.928 135.137 295.403L135.157 283.739Z" fill="#37474F"/>
<path d="M135.157 281.285C135.067 281.284 134.98 281.252 134.911 281.194C134.842 281.136 134.796 281.055 134.78 280.967C131.978 264.027 119.081 252.402 118.952 252.283C118.883 252.21 118.844 252.114 118.844 252.014C118.844 251.914 118.883 251.818 118.952 251.746C118.987 251.711 119.029 251.682 119.075 251.663C119.121 251.644 119.17 251.634 119.22 251.634C119.27 251.634 119.32 251.644 119.366 251.663C119.412 251.682 119.454 251.711 119.489 251.746C119.628 251.855 132.713 263.669 135.565 280.867C135.579 280.967 135.554 281.069 135.494 281.151C135.435 281.232 135.346 281.288 135.247 281.305L135.157 281.285Z" fill="#FAFAFA"/>
<path d="M135.157 283.739C135.157 283.739 135.773 281.871 133.021 281.394C130.269 280.917 129.216 278.632 128.967 274.797C128.719 270.962 127.547 268.209 124.099 267.643C120.651 267.077 117.879 268.815 115.644 267.087C113.408 265.358 107.616 261.195 102.787 263.112C97.9581 265.03 99.5478 269.133 102.062 271.796C104.575 274.459 105.291 275.373 103.373 279.745C101.455 284.116 102.846 288.15 107.288 289.164C111.729 290.177 114.243 289.661 114.243 294.519C114.243 299.378 114.978 301.553 117.412 303.461C119.846 305.369 127.487 304.514 130.666 305.25C131.621 305.496 132.512 305.942 133.281 306.558C134.051 307.175 134.68 307.948 135.127 308.826L135.157 283.739Z" fill="#455A64"/>
<path d="M135.157 303.779C135.078 303.779 135.001 303.754 134.937 303.708C134.873 303.661 134.825 303.596 134.8 303.521C126.722 279.556 108.45 269.869 108.261 269.74C108.178 269.688 108.116 269.607 108.09 269.513C108.064 269.418 108.074 269.317 108.12 269.229C108.165 269.142 108.242 269.076 108.335 269.043C108.427 269.011 108.529 269.014 108.619 269.054C108.798 269.153 127.338 278.99 135.515 303.243C135.532 303.29 135.539 303.339 135.536 303.389C135.533 303.439 135.52 303.488 135.498 303.532C135.476 303.577 135.445 303.617 135.407 303.649C135.368 303.681 135.324 303.705 135.277 303.72C135.243 303.75 135.202 303.771 135.157 303.779Z" fill="#FAFAFA"/>
<path d="M123.572 282.884H123.513C118.237 281.682 109.801 282.338 109.712 282.338C109.662 282.342 109.613 282.336 109.565 282.321C109.518 282.306 109.474 282.281 109.436 282.249C109.398 282.216 109.367 282.177 109.345 282.133C109.322 282.088 109.308 282.04 109.305 281.99C109.299 281.94 109.304 281.89 109.319 281.842C109.334 281.794 109.358 281.749 109.391 281.711C109.423 281.673 109.463 281.642 109.508 281.62C109.553 281.598 109.602 281.585 109.652 281.583C110.01 281.583 118.296 280.917 123.682 282.149C123.772 282.17 123.852 282.224 123.905 282.3C123.958 282.376 123.982 282.469 123.97 282.562C123.959 282.654 123.915 282.739 123.845 282.8C123.775 282.862 123.685 282.895 123.592 282.894L123.572 282.884Z" fill="#FAFAFA"/>
<path d="M127.874 294.41C125.46 294.41 122.907 294.251 122.748 294.241C122.646 294.233 122.552 294.186 122.486 294.11C122.419 294.034 122.384 293.935 122.39 293.833C122.392 293.783 122.405 293.733 122.427 293.688C122.449 293.642 122.48 293.602 122.518 293.568C122.556 293.535 122.6 293.51 122.648 293.494C122.696 293.478 122.747 293.472 122.797 293.476C125.543 293.669 128.298 293.669 131.044 293.476C131.143 293.462 131.243 293.487 131.323 293.547C131.403 293.606 131.456 293.695 131.471 293.794C131.48 293.843 131.478 293.894 131.466 293.943C131.455 293.992 131.434 294.039 131.404 294.079C131.375 294.12 131.337 294.154 131.294 294.181C131.251 294.207 131.203 294.224 131.153 294.231C130.066 294.367 128.97 294.427 127.874 294.41Z" fill="#FAFAFA"/>
<path d="M121.098 280.073C120.997 280.065 120.903 280.018 120.836 279.942C120.769 279.866 120.735 279.766 120.741 279.665C120.922 276.922 121.494 274.219 122.44 271.637C122.477 271.545 122.549 271.472 122.64 271.433C122.731 271.394 122.834 271.392 122.926 271.428C122.974 271.445 123.017 271.471 123.054 271.505C123.09 271.538 123.12 271.579 123.14 271.625C123.161 271.67 123.172 271.72 123.173 271.77C123.173 271.82 123.164 271.869 123.145 271.915C122.24 274.427 121.685 277.052 121.496 279.715C121.493 279.764 121.481 279.813 121.459 279.858C121.438 279.903 121.408 279.943 121.371 279.976C121.334 280.009 121.291 280.035 121.244 280.052C121.197 280.068 121.148 280.075 121.098 280.073Z" fill="#FAFAFA"/>
<path d="M135.038 129.994V310.466C135.038 312.115 136.191 312.781 137.621 311.956L354.437 186.767C355.186 186.275 355.808 185.614 356.253 184.837C356.698 184.06 356.954 183.19 357.001 182.296V1.84415C357.001 0.194831 355.848 -0.470858 354.427 0.353802L137.611 125.543C136.864 126.032 136.242 126.689 135.795 127.462C135.348 128.235 135.089 129.103 135.038 129.994Z" fill="#C761B6"/>
<path d="M354.437 0.353802L137.621 125.543C136.869 126.033 136.244 126.693 135.795 127.47C135.346 128.246 135.087 129.118 135.038 130.014V141.301L357.001 12.8429V1.84415C357.001 0.194831 355.858 -0.470858 354.437 0.353802Z" fill="#263238"/>
<path d="M326.746 20.394C326.007 20.8757 325.392 21.5257 324.951 22.2907C324.511 23.0556 324.258 23.914 324.213 24.7955C324.213 26.415 325.346 27.0708 326.756 26.266C327.496 25.7809 328.111 25.129 328.553 24.3628C328.995 23.5967 329.251 22.7376 329.3 21.8545C329.29 20.235 328.187 19.5793 326.746 20.394Z" fill="white"/>
<path d="M336.831 14.5618C336.092 15.0448 335.477 15.6948 335.035 16.4594C334.593 17.2239 334.337 18.0817 334.288 18.9633C334.288 20.5928 335.43 21.2485 336.831 20.4338C337.573 19.9532 338.19 19.3037 338.632 18.5387C339.074 17.7736 339.329 16.9147 339.375 16.0323C339.375 14.383 338.242 13.757 336.831 14.5618Z" fill="white"/>
<path d="M346.926 8.73958C346.187 9.22255 345.571 9.87255 345.13 10.6371C344.688 11.4017 344.432 12.2594 344.382 13.1411C344.382 14.7606 345.525 15.4263 346.926 14.6116C347.665 14.1286 348.281 13.4786 348.722 12.714C349.164 11.9495 349.42 11.0917 349.47 10.2101C349.47 8.58061 348.327 7.92486 346.926 8.73958Z" fill="white"/>
<path d="M204.677 125.245V178.898L158.228 205.724V152.071L204.677 125.245ZM205.671 123.526L157.234 151.495V207.423L205.671 179.454V123.526Z" fill="#FAFAFA"/>
<path d="M221.319 170.989V113.919L270.739 85.3833V142.454L221.319 170.989ZM222.313 114.495V169.27L269.746 141.877V87.1022L222.313 114.495Z" fill="#FAFAFA"/>
<path d="M252.279 113.551L254.882 107.927C252.001 107.521 249.069 108.117 246.576 109.616V114.733C248.298 113.731 250.3 113.316 252.279 113.551Z" fill="#C761B6"/>
<path d="M256.651 117.356L260.863 113.382C260.458 112.184 259.785 111.094 258.894 110.195C258.004 109.296 256.921 108.613 255.727 108.196L253.133 113.819C253.94 114.12 254.672 114.592 255.28 115.202C255.887 115.813 256.355 116.548 256.651 117.356Z" fill="#C761B6"/>
<path d="M239.76 142.821L237.167 148.435C240.042 148.86 242.976 148.27 245.463 146.766V141.659C243.743 142.666 241.737 143.075 239.76 142.821Z" fill="#C761B6"/>
<path d="M253.173 134.336L255.766 136.959C258.072 133.558 259.807 129.802 260.903 125.841L256.651 126.656C255.899 129.382 254.726 131.973 253.173 134.336Z" fill="#C761B6"/>
<path d="M246.576 141.023V146.13C249.819 144.029 252.634 141.331 254.872 138.181L252.279 135.598C250.718 137.733 248.786 139.571 246.576 141.023Z" fill="#C761B6"/>
<path d="M261.241 114.366L257.038 118.34C257.316 119.39 257.453 120.473 257.445 121.559C257.435 122.802 257.298 124.04 257.038 125.255L261.241 124.411C261.637 122.639 261.844 120.831 261.857 119.016C261.87 117.444 261.663 115.879 261.241 114.366Z" fill="#C761B6"/>
<g opacity="0.2">
<path d="M252.279 113.551L254.882 107.927C252.001 107.521 249.069 108.117 246.576 109.616V114.733C248.298 113.73 250.3 113.315 252.279 113.551Z" fill="black"/>
<path d="M256.651 117.356L260.863 113.382C260.458 112.184 259.785 111.094 258.894 110.195C258.004 109.296 256.921 108.612 255.727 108.196L253.133 113.819C253.94 114.12 254.672 114.592 255.28 115.202C255.887 115.813 256.355 116.548 256.651 117.356Z" fill="black"/>
<path d="M239.76 142.821L237.167 148.435C240.042 148.86 242.976 148.27 245.463 146.766V141.659C243.743 142.666 241.737 143.075 239.76 142.821Z" fill="black"/>
<path d="M253.173 134.336L255.766 136.959C258.072 133.557 259.807 129.802 260.903 125.841L256.651 126.656C255.899 129.382 254.726 131.973 253.173 134.336Z" fill="black"/>
<path d="M246.576 141.023V146.13C249.819 144.028 252.634 141.331 254.872 138.181L252.279 135.598C250.718 137.733 248.786 139.57 246.576 141.023Z" fill="black"/>
<path d="M261.241 114.366L257.038 118.34C257.316 119.39 257.453 120.473 257.445 121.559C257.435 122.802 257.298 124.04 257.038 125.255L261.241 124.411C261.637 122.639 261.844 120.831 261.857 119.015C261.87 117.444 261.663 115.879 261.241 114.366Z" fill="black"/>
</g>
<path d="M245.473 115.349V110.242C242.228 112.341 239.412 115.039 237.177 118.191L239.77 120.814C241.324 118.662 243.257 116.811 245.473 115.349Z" fill="#FAFAFA"/>
<path d="M238.885 122.036L236.292 119.413C233.982 122.809 232.247 126.562 231.156 130.521L235.358 129.676C236.126 126.96 237.316 124.382 238.885 122.036Z" fill="#FAFAFA"/>
<path d="M234.603 134.773C234.618 133.531 234.758 132.292 235.021 131.077L230.818 131.932C230.422 133.7 230.215 135.505 230.202 137.317C230.186 138.901 230.393 140.48 230.818 142.007L235.021 138.032C234.736 136.97 234.596 135.874 234.603 134.773Z" fill="#FAFAFA"/>
<path d="M235.358 139.016L231.156 142.99C231.56 144.188 232.233 145.277 233.123 146.175C234.013 147.072 235.098 147.753 236.292 148.167L238.885 142.553C238.077 142.254 237.342 141.782 236.734 141.172C236.125 140.561 235.655 139.826 235.358 139.016Z" fill="#FAFAFA"/>
<path d="M236.58 133.611C236.58 127.58 240.813 120.257 246.029 117.247C251.245 114.236 255.478 116.671 255.478 122.702C255.478 128.733 251.245 136.055 246.029 139.066C240.813 142.076 236.58 139.662 236.58 133.611Z" fill="#C761B6"/>
<path opacity="0.2" d="M236.58 133.611C236.58 127.58 240.813 120.257 246.029 117.247C251.245 114.236 255.478 116.671 255.478 122.702C255.478 128.733 251.245 136.055 246.029 139.066C240.813 142.076 236.58 139.662 236.58 133.611Z" fill="black"/>
<path d="M245.095 125.076C245.115 125.464 245.115 125.852 245.095 126.239C245.077 126.558 245.024 126.875 244.936 127.183C244.852 127.504 244.721 127.812 244.549 128.097C244.18 128.734 243.648 129.262 243.009 129.627C242.733 129.801 242.426 129.919 242.105 129.975C241.888 130.018 241.662 129.983 241.469 129.875C241.294 129.764 241.159 129.6 241.081 129.408C240.986 129.167 240.932 128.912 240.922 128.653C240.922 128.454 240.922 128.266 240.922 128.087C240.922 127.908 240.922 127.709 240.922 127.481C240.939 127.145 240.992 126.811 241.081 126.487C241.173 126.171 241.303 125.867 241.469 125.583C241.644 125.276 241.858 124.992 242.105 124.738C242.374 124.47 242.678 124.24 243.009 124.053C243.286 123.879 243.592 123.758 243.913 123.695C244.131 123.66 244.355 123.698 244.549 123.805C244.724 123.916 244.859 124.079 244.936 124.271C245.032 124.53 245.086 124.801 245.095 125.076ZM248.414 121.35C248.464 121.234 248.528 121.124 248.603 121.023C248.681 120.923 248.779 120.842 248.891 120.784L249.984 120.158C250.014 120.131 250.051 120.112 250.091 120.103C250.131 120.095 250.173 120.096 250.212 120.108C250.272 120.108 250.302 120.188 250.302 120.277C250.305 120.304 250.305 120.33 250.302 120.357C250.306 120.396 250.306 120.436 250.302 120.476L243.734 134.237C243.678 134.349 243.612 134.455 243.535 134.555C243.459 134.655 243.365 134.739 243.257 134.803L242.164 135.429C242.129 135.446 242.09 135.455 242.05 135.455C242.011 135.455 241.972 135.446 241.936 135.429C241.876 135.429 241.846 135.35 241.846 135.26C241.846 135.171 241.846 135.211 241.846 135.171C241.846 135.131 241.846 135.101 241.846 135.062L248.414 121.35ZM242.452 127.679C242.449 127.864 242.497 128.047 242.592 128.206C242.661 128.295 242.8 128.276 242.999 128.206C243.175 128.111 243.314 127.961 243.396 127.779C243.485 127.56 243.535 127.329 243.545 127.093C243.564 126.762 243.564 126.431 243.545 126.1C243.547 125.917 243.496 125.737 243.396 125.583C243.327 125.494 243.188 125.504 242.999 125.583C242.818 125.675 242.674 125.825 242.592 126.01C242.507 126.229 242.46 126.461 242.452 126.696C242.429 127.013 242.432 127.333 242.462 127.65L242.452 127.679ZM251.245 126.885C251.265 127.275 251.265 127.666 251.245 128.057C251.225 128.372 251.175 128.685 251.096 128.991C250.921 129.649 250.579 130.252 250.103 130.74C249.837 131.014 249.532 131.248 249.199 131.435C248.923 131.609 248.616 131.727 248.295 131.783C248.078 131.831 247.851 131.795 247.659 131.683C247.484 131.572 247.349 131.409 247.271 131.217C247.176 130.976 247.122 130.72 247.112 130.461C247.112 130.263 247.112 130.074 247.112 129.905C247.112 129.736 247.112 129.518 247.112 129.289C247.131 128.973 247.185 128.66 247.271 128.355C247.363 128.036 247.493 127.729 247.659 127.441C247.832 127.135 248.046 126.854 248.295 126.606C248.561 126.332 248.865 126.098 249.199 125.911C249.474 125.737 249.782 125.619 250.103 125.563C250.32 125.515 250.547 125.551 250.739 125.662C250.913 125.774 251.049 125.937 251.126 126.129C251.211 126.372 251.255 126.627 251.255 126.885H251.245ZM248.613 129.498C248.613 129.679 248.661 129.857 248.752 130.014C248.831 130.104 248.96 130.094 249.159 130.014C249.337 129.92 249.48 129.77 249.566 129.587C249.646 129.367 249.693 129.136 249.705 128.901C249.725 128.571 249.725 128.239 249.705 127.908C249.705 127.727 249.657 127.548 249.566 127.391C249.487 127.302 249.358 127.312 249.159 127.391C248.981 127.486 248.838 127.636 248.752 127.819C248.672 128.039 248.625 128.27 248.613 128.504C248.587 128.835 248.591 129.167 248.622 129.498H248.613Z" fill="#FAFAFA"/>
<path d="M285.891 133.71V76.6301L335.311 48.0948V105.175L285.891 133.71ZM286.885 77.2063V131.982L334.318 104.599V49.8237L286.885 77.2063Z" fill="#FAFAFA"/>
<path d="M310.055 78.0608V73.0035C306.806 75.1011 303.987 77.7987 301.748 80.9521L304.352 83.585C305.899 81.4109 307.832 79.5386 310.055 78.0608Z" fill="#FAFAFA"/>
<path d="M303.457 84.7574L300.864 82.1344C298.552 85.529 296.816 89.2822 295.727 93.2425L299.93 92.388C300.704 89.6772 301.894 87.1031 303.457 84.7574Z" fill="#FAFAFA"/>
<path d="M316.851 76.2723L319.454 70.6388C316.573 70.2321 313.641 70.8285 311.148 72.3278V77.4248C312.87 76.4235 314.875 76.0183 316.851 76.2723Z" fill="#C761B6"/>
<path d="M321.232 80.0677L325.435 76.0935C325.03 74.8964 324.356 73.8077 323.466 72.9106C322.576 72.0134 321.492 71.3316 320.298 70.917L317.705 76.5306C318.514 76.83 319.248 77.3013 319.857 77.9119C320.466 78.5226 320.935 79.2581 321.232 80.0677Z" fill="#C761B6"/>
<path d="M304.342 105.533L301.748 111.156C304.133 111.643 306.984 111.156 310.055 109.477V104.38C308.329 105.384 306.321 105.789 304.342 105.533Z" fill="#C761B6"/>
<path d="M325.813 77.0771L321.61 81.0514C321.892 82.1045 322.032 83.1904 322.027 84.2805C322.013 85.5234 321.873 86.7617 321.61 87.9766L325.813 87.132C326.209 85.3606 326.415 83.5521 326.429 81.737C326.442 80.1626 326.234 78.5941 325.813 77.0771Z" fill="#C761B6"/>
<path d="M317.745 97.0478L320.338 99.6708C322.648 96.2751 324.384 92.5223 325.475 88.5627L321.272 89.4172C320.498 92.128 319.308 94.7021 317.745 97.0478Z" fill="#C761B6"/>
<path d="M299.175 97.4949C299.189 96.2519 299.329 95.0136 299.592 93.7988L295.39 94.6434C294.994 96.4148 294.787 98.2233 294.774 100.038C294.758 101.62 294.965 103.195 295.39 104.718L299.592 100.744C299.31 99.6842 299.169 98.5916 299.175 97.4949Z" fill="#C761B6"/>
<path d="M299.93 101.727L295.727 105.702C296.133 106.899 296.806 107.987 297.697 108.885C298.587 109.782 299.67 110.464 300.864 110.878L303.457 105.265C302.649 104.965 301.914 104.494 301.305 103.883C300.697 103.273 300.227 102.537 299.93 101.727Z" fill="#C761B6"/>
<path d="M311.148 103.744V108.841C314.392 106.759 317.211 104.078 319.454 100.943L316.861 98.3096C315.299 100.45 313.364 102.291 311.148 103.744Z" fill="#C761B6"/>
<g opacity="0.2">
<path d="M316.851 76.2722L319.454 70.6386C316.573 70.232 313.641 70.8284 311.148 72.3277V77.4247C312.87 76.4233 314.875 76.0182 316.851 76.2722Z" fill="black"/>
<path d="M321.232 80.0676L325.435 76.0933C325.03 74.8962 324.356 73.8076 323.466 72.9104C322.576 72.0133 321.492 71.3314 320.298 70.9169L317.705 76.5305C318.514 76.8299 319.248 77.3012 319.857 77.9118C320.466 78.5225 320.935 79.258 321.232 80.0676Z" fill="black"/>
<path d="M304.342 105.533L301.748 111.156C304.133 111.643 306.984 111.156 310.055 109.477V104.38C308.329 105.384 306.321 105.789 304.342 105.533Z" fill="black"/>
<path d="M325.813 77.077L321.61 81.0513C321.892 82.1044 322.032 83.1903 322.027 84.2804C322.013 85.5233 321.873 86.7616 321.61 87.9765L325.813 87.1319C326.209 85.3605 326.415 83.552 326.429 81.7369C326.442 80.1625 326.234 78.594 325.813 77.077Z" fill="black"/>
<path d="M317.745 97.0477L320.338 99.6707C322.648 96.275 324.384 92.5221 325.475 88.5626L321.272 89.4171C320.498 92.1278 319.308 94.702 317.745 97.0477Z" fill="black"/>
<path d="M299.175 97.4948C299.189 96.2518 299.329 95.0135 299.592 93.7987L295.39 94.6432C294.994 96.4147 294.787 98.2232 294.774 100.038C294.758 101.619 294.965 103.195 295.39 104.718L299.592 100.744C299.31 99.6841 299.169 98.5915 299.175 97.4948Z" fill="black"/>
<path d="M299.93 101.727L295.727 105.702C296.133 106.899 296.806 107.987 297.697 108.884C298.587 109.782 299.67 110.463 300.864 110.878L303.457 105.264C302.649 104.965 301.914 104.494 301.305 103.883C300.697 103.272 300.227 102.537 299.93 101.727Z" fill="black"/>
<path d="M311.148 103.744V108.841C314.392 106.758 317.211 104.078 319.454 100.942L316.861 98.3094C315.299 100.45 313.364 102.291 311.148 103.744Z" fill="black"/>
</g>
<path d="M301.152 96.3523C301.152 90.3313 305.385 83.0087 310.601 79.9883C315.817 76.9678 320.05 79.4219 320.05 85.443C320.05 91.464 315.817 98.8362 310.601 101.817C305.385 104.798 301.152 102.383 301.152 96.3523Z" fill="#C761B6"/>
<path opacity="0.2" d="M301.152 96.3523C301.152 90.3313 305.385 83.0087 310.601 79.9883C315.817 76.9678 320.05 79.4219 320.05 85.443C320.05 91.464 315.817 98.8362 310.601 101.817C305.385 104.798 301.152 102.383 301.152 96.3523Z" fill="black"/>
<path d="M309.667 87.7977C309.687 88.1849 309.687 88.5729 309.667 88.9601C309.647 89.2787 309.597 89.5947 309.518 89.904C309.425 90.2195 309.295 90.523 309.131 90.8082C308.951 91.1151 308.734 91.3988 308.485 91.6527C308.215 91.9207 307.911 92.1513 307.581 92.3383C307.303 92.5106 306.997 92.6318 306.677 92.696C306.459 92.7343 306.236 92.6994 306.041 92.5966C305.866 92.4852 305.73 92.3219 305.653 92.1296C305.558 91.8852 305.504 91.6266 305.494 91.3646C305.485 91.1792 305.485 90.9935 305.494 90.8082C305.494 90.6293 305.494 90.4306 305.494 90.2021C305.513 89.8827 305.566 89.5662 305.653 89.2582C305.746 88.9395 305.876 88.6327 306.041 88.3441C306.214 88.0384 306.428 87.7576 306.677 87.5095C306.946 87.2416 307.25 87.011 307.581 86.824C307.858 86.6517 308.164 86.5305 308.485 86.4663C308.702 86.428 308.926 86.4629 309.121 86.5656C309.295 86.6771 309.431 86.8404 309.508 87.0326C309.603 87.2771 309.657 87.5356 309.667 87.7977ZM312.986 84.0718C313.04 83.9577 313.103 83.8481 313.174 83.7439C313.255 83.6469 313.352 83.566 313.463 83.5055L314.555 82.8696C314.622 82.8236 314.704 82.8058 314.784 82.8199C314.844 82.8199 314.873 82.8994 314.873 82.9988C314.873 83.0981 314.873 82.9988 314.873 83.0782C314.877 83.1179 314.877 83.1578 314.873 83.1975L308.316 96.9484C308.262 97.0625 308.199 97.1721 308.127 97.2763C308.049 97.3754 307.951 97.4567 307.839 97.5147L306.746 98.1506C306.713 98.1739 306.676 98.1903 306.637 98.1988C306.598 98.2074 306.557 98.2079 306.518 98.2003C306.458 98.2003 306.428 98.1208 306.428 98.0215C306.425 97.9951 306.425 97.9684 306.428 97.942C306.424 97.9024 306.424 97.8624 306.428 97.8228L312.986 84.0718ZM307.024 90.4008C307.023 90.5825 307.071 90.7612 307.163 90.9175C307.243 91.0069 307.372 90.997 307.571 90.9175C307.748 90.817 307.89 90.6644 307.978 90.4803C308.058 90.2633 308.105 90.0356 308.117 89.8047C308.136 89.4738 308.136 89.142 308.117 88.8111C308.119 88.6294 308.071 88.4507 307.978 88.2945C307.899 88.205 307.769 88.215 307.571 88.2945C307.393 88.3949 307.251 88.5476 307.163 88.7316C307.083 88.9486 307.036 89.1763 307.024 89.4072C307.008 89.7384 307.012 90.0701 307.034 90.4008H307.024ZM315.817 89.606C315.847 89.9929 315.847 90.3815 315.817 90.7684C315.801 91.1038 315.751 91.4366 315.668 91.762C315.573 92.0801 315.443 92.3866 315.281 92.6761C315.104 92.9818 314.886 93.2624 314.635 93.5107C314.363 93.7789 314.06 94.0125 313.731 94.2062C313.454 94.3776 313.147 94.4956 312.827 94.5539C312.61 94.5972 312.384 94.562 312.191 94.4546C312.016 94.3431 311.881 94.1798 311.803 93.9876C311.714 93.7449 311.66 93.4906 311.644 93.2325C311.644 93.0338 311.644 92.845 311.644 92.6661C311.644 92.4873 311.644 92.2886 311.644 92.0601C311.668 91.7412 311.721 91.4253 311.803 91.1162C311.897 90.7975 312.027 90.4907 312.191 90.2021C312.369 89.8997 312.582 89.6195 312.827 89.3675C313.098 89.1018 313.402 88.8715 313.731 88.6819C314.008 88.5096 314.315 88.3885 314.635 88.3243C314.852 88.2859 315.076 88.3209 315.271 88.4236C315.446 88.5351 315.581 88.6983 315.658 88.8906C315.751 89.1191 315.808 89.3603 315.827 89.606H315.817ZM313.184 92.2091C313.183 92.3908 313.231 92.5695 313.323 92.7258C313.403 92.8152 313.542 92.8053 313.731 92.7258C313.912 92.6304 314.056 92.4763 314.138 92.2886C314.224 92.0732 314.271 91.8446 314.277 91.613C314.306 91.2824 314.306 90.95 314.277 90.6194C314.283 90.4372 314.234 90.2575 314.138 90.1028C314.059 90.0133 313.93 90.0233 313.731 90.1028C313.553 90.2032 313.411 90.3558 313.323 90.5399C313.244 90.7572 313.198 90.9848 313.184 91.2155C313.169 91.5466 313.172 91.8784 313.194 92.2091H313.184Z" fill="#FAFAFA"/>
<path d="M157.234 221.412V277.34L205.671 249.371V193.453L157.234 221.412Z" fill="#C761B6"/>
<path opacity="0.7" d="M157.234 221.412V277.34L205.671 249.371V193.453L157.234 221.412Z" fill="#FAFAFA"/>
<path d="M157.234 236.197C158.874 236.833 160.99 236.574 163.295 235.203C168.511 232.222 172.744 224.86 172.744 218.839C172.87 216.881 172.216 214.952 170.926 213.474L157.234 221.373V236.197Z" fill="#C761B6"/>
<path d="M178.566 237.578C179.043 236.008 179.987 235.938 180.672 237.439L187.508 252.342L197.692 213.782C198.119 212.192 198.825 212.182 199.262 213.782L205.671 236.545V249.381L168.442 270.882L178.566 237.578Z" fill="#C761B6"/>
<g opacity="0.2">
<path d="M157.234 236.197C158.874 236.833 160.99 236.574 163.295 235.203C168.511 232.222 172.744 224.86 172.744 218.839C172.87 216.881 172.216 214.952 170.926 213.474L157.234 221.373V236.197Z" fill="black"/>
<path d="M178.566 237.578C179.043 236.008 179.987 235.938 180.673 237.439L187.508 252.342L197.692 213.782C198.12 212.192 198.825 212.182 199.262 213.782L205.671 236.545V249.381L168.442 270.882L178.566 237.578Z" fill="black"/>
</g>
<path d="M204.677 195.212V248.865L158.228 275.691V222.038L204.677 195.212ZM205.671 193.493L157.234 221.452V277.38L205.671 249.411V193.453V193.493Z" fill="#C761B6"/>
<path opacity="0.7" d="M204.677 195.212V248.865L158.228 275.691V222.038L204.677 195.212ZM205.671 193.493L157.234 221.452V277.38L205.671 249.411V193.453V193.493Z" fill="#FAFAFA"/>
<path d="M221.816 184.134V240.052L270.242 212.093V156.175L221.816 184.134Z" fill="#C761B6"/>
<path opacity="0.7" d="M221.816 184.134V240.052L270.242 212.093V156.175L221.816 184.134Z" fill="#FAFAFA"/>
<path d="M221.816 198.918C223.455 199.554 225.562 199.286 227.867 197.924C233.083 194.944 237.316 187.581 237.316 181.551C237.44 179.595 236.787 177.67 235.497 176.195L221.816 184.094V198.918Z" fill="#C761B6"/>
<path d="M243.138 200.299C243.625 198.719 244.569 198.66 245.254 200.15L252.08 215.054L262.274 176.493C262.691 174.904 263.397 174.894 263.844 176.493L270.242 199.246V212.103L233.014 233.594L243.138 200.299Z" fill="#C761B6"/>
<g opacity="0.2">
<path d="M221.816 198.918C223.455 199.554 225.562 199.286 227.867 197.924C233.083 194.944 237.316 187.581 237.316 181.551C237.44 179.595 236.787 177.67 235.497 176.195L221.816 184.094V198.918Z" fill="black"/>
<path d="M243.138 200.299C243.625 198.719 244.569 198.66 245.254 200.15L252.08 215.054L262.274 176.493C262.691 174.904 263.397 174.894 263.844 176.493L270.242 199.246V212.103L233.014 233.594L243.138 200.299Z" fill="black"/>
</g>
<path d="M269.249 157.894V211.546L222.81 238.373V184.72L269.249 157.894ZM270.242 156.165L221.816 184.134V240.052L270.242 212.103V156.165Z" fill="#C761B6"/>
<path opacity="0.7" d="M269.249 157.894V211.546L222.81 238.373V184.72L269.249 157.894ZM270.242 156.165L221.816 184.134V240.052L270.242 212.103V156.165Z" fill="#FAFAFA"/>
<path d="M286.388 146.845V202.773L334.814 174.814V118.886L286.388 146.845Z" fill="#C761B6"/>
<path opacity="0.7" d="M286.388 146.845V202.773L334.814 174.814V118.886L286.388 146.845Z" fill="#FAFAFA"/>
<path d="M286.388 161.64C288.027 162.275 290.134 162.007 292.439 160.646C297.655 157.665 301.888 150.313 301.888 144.282C302.011 142.324 301.358 140.396 300.069 138.917L286.388 146.816V161.64Z" fill="#C761B6"/>
<path d="M307.71 163.011C308.197 161.441 309.141 161.381 309.826 162.871L316.652 177.775L326.846 139.205C327.263 137.615 327.969 137.615 328.416 139.205L334.814 161.967V174.814L297.585 196.305L307.71 163.011Z" fill="#C761B6"/>
<g opacity="0.2">
<path d="M286.388 161.64C288.027 162.275 290.134 162.007 292.439 160.646C297.655 157.665 301.888 150.313 301.888 144.282C302.011 142.324 301.358 140.396 300.069 138.917L286.388 146.816V161.64Z" fill="black"/>
<path d="M307.71 163.011C308.197 161.441 309.141 161.381 309.826 162.871L316.652 177.775L326.846 139.205C327.263 137.615 327.969 137.615 328.416 139.205L334.814 161.967V174.814L297.585 196.305L307.71 163.011Z" fill="black"/>
</g>
<path d="M333.821 120.605V174.258L287.382 201.084V147.432L333.821 120.605ZM334.814 118.886L286.388 146.845V202.773L334.814 174.814V118.886Z" fill="#C761B6"/>
<path opacity="0.7" d="M333.821 120.605V174.258L287.382 201.084V147.432L333.821 120.605ZM334.814 118.886L286.388 146.845V202.773L334.814 174.814V118.886Z" fill="#FAFAFA"/>
<path d="M328.764 138.022L343.031 141.828L338.222 144.54L346.946 150.929L345.813 152.677L336.831 146.249L335.639 151.495L328.764 138.022Z" fill="#263238"/>
<path d="M402.863 102.88L371.705 120.863C370.953 121.353 370.327 122.013 369.879 122.79C369.43 123.567 369.171 124.439 369.122 125.335V150.502L361.173 158.708C360.031 159.891 360.428 160.696 362.058 160.497L369.082 159.672V170.661C369.082 172.3 370.235 172.976 371.666 172.151L402.824 154.158C403.576 153.669 404.203 153.009 404.651 152.232C405.1 151.455 405.359 150.583 405.407 149.687V104.37C405.447 102.721 404.294 102.055 402.863 102.88Z" fill="#37474F"/>
<path d="M379.505 130.362L378.193 130.262C376.465 130.123 374.408 129.438 374.408 126.964C374.458 126.053 374.722 125.166 375.177 124.376C375.633 123.586 376.268 122.913 377.031 122.413C378.164 121.767 379.127 122.036 379.495 122.97C379.87 121.572 380.747 120.362 381.959 119.572C383.41 118.737 384.582 119.413 384.582 121.092C384.582 123.516 382.535 126.586 380.816 128.732L379.505 130.362Z" fill="#FAFAFA"/>
<path d="M391.885 116.174L398.84 112.199C400.261 111.375 401.423 111.752 401.423 113.044C401.316 113.836 401.026 114.592 400.578 115.254C400.13 115.916 399.535 116.465 398.84 116.859L391.885 120.834C390.454 121.658 389.302 121.281 389.302 119.989C389.407 119.196 389.695 118.439 390.143 117.777C390.592 117.115 391.188 116.566 391.885 116.174Z" fill="#FAFAFA"/>
<path d="M376.981 138.449L383.936 134.475C385.367 133.651 386.52 134.028 386.52 135.31C386.416 136.104 386.128 136.864 385.68 137.528C385.231 138.192 384.634 138.742 383.936 139.135L376.981 143.109C375.56 143.934 374.408 143.556 374.408 142.275C374.512 141.482 374.799 140.723 375.245 140.06C375.692 139.396 376.286 138.845 376.981 138.449Z" fill="#FAFAFA"/>
<path d="M376.981 148.167L398.84 135.558C400.261 134.734 401.423 135.111 401.423 136.393C401.317 137.187 401.029 137.945 400.58 138.609C400.132 139.272 399.536 139.823 398.84 140.218L376.981 152.826C375.56 153.651 374.408 153.273 374.408 151.992C374.512 151.199 374.799 150.441 375.245 149.777C375.692 149.113 376.286 148.562 376.981 148.167Z" fill="#FAFAFA"/>
<path d="M376.981 157.238L398.84 144.629C400.261 143.805 401.423 144.182 401.423 145.474C401.316 146.266 401.026 147.022 400.578 147.684C400.13 148.346 399.535 148.895 398.84 149.289L376.981 161.898C375.56 162.722 374.408 162.345 374.408 161.063C374.512 160.27 374.799 159.512 375.245 158.848C375.692 158.184 376.286 157.633 376.981 157.238Z" fill="#FAFAFA"/>
<path d="M50.2869 339.06L98.7133 367.019L147.15 339.06L98.7133 311.092L50.2869 339.06Z" fill="#C761B6"/>
<path opacity="0.7" d="M50.2869 339.06L98.7133 367.019L147.15 339.06L98.7133 311.092L50.2869 339.06Z" fill="#FAFAFA"/>
<path d="M63.0939 346.453C65.9776 346.357 68.8001 345.595 71.3405 344.227C76.5567 341.246 76.5567 336.278 71.3405 333.298C69.0662 332.059 66.5519 331.323 63.9683 331.142L50.2869 339.06L63.0939 346.453Z" fill="#C761B6"/>
<path d="M96.279 340.988C95.6332 340.054 96.9944 339.756 99.3193 340.302L122.519 345.787L104.406 323.561C103.661 322.647 104.704 322.438 106.751 323.104L136.071 332.642L147.189 339.06L109.96 360.551L96.279 340.988Z" fill="#C761B6"/>
<g opacity="0.2">
<path d="M63.0939 346.452C65.9776 346.356 68.8001 345.595 71.3405 344.227C76.5567 341.246 76.5567 336.278 71.3405 333.298C69.0662 332.058 66.5519 331.323 63.9683 331.142L50.2869 339.06L63.0939 346.452Z" fill="black"/>
<path d="M96.279 340.988C95.6332 340.054 96.9944 339.756 99.3193 340.302L122.519 345.787L104.406 323.561C103.661 322.647 104.704 322.438 106.751 323.104L136.071 332.642L147.189 339.06L109.96 360.551L96.279 340.988Z" fill="black"/>
</g>
<path d="M98.6735 312.244L145.123 339.07L98.6735 365.897L52.2343 339.07L98.6735 312.244ZM98.6735 311.101L50.2869 339.06L98.6735 367.019L147.11 339.06L98.6735 311.101Z" fill="#C761B6"/>
<path opacity="0.7" d="M98.6735 312.244L145.123 339.07L98.6735 365.897L52.2343 339.07L98.6735 312.244ZM98.6735 311.101L50.2869 339.06L98.6735 367.019L147.11 339.06L98.6735 311.101Z" fill="#FAFAFA"/>
<path d="M50.2869 339.06V343.72L98.7133 371.679V367.019L50.2869 339.06Z" fill="#C761B6"/>
<path opacity="0.6" d="M50.2869 339.06V343.72L98.7133 371.679V367.019L50.2869 339.06Z" fill="#FAFAFA"/>
<path d="M147.15 339.06L98.7133 367.019V371.679L147.15 343.72V339.06Z" fill="#C761B6"/>
<path opacity="0.1" d="M147.15 339.06L98.7133 367.019V371.679L147.15 343.72V339.06Z" fill="#FAFAFA"/>
<path d="M425.626 234.279L377.19 206.32L328.764 234.279L377.19 262.238L425.626 234.279Z" fill="#263238"/>
<path d="M377.19 206.32L328.764 234.279V271.558L377.19 299.526V206.32Z" fill="#263238"/>
<path d="M340.875 278.552L332.807 222.634L381.234 194.676L389.312 250.593L340.875 278.552Z" fill="#C761B6"/>
<path opacity="0.7" d="M340.875 278.552L332.807 222.634L381.234 194.676L389.312 250.593L340.875 278.552Z" fill="#FAFAFA"/>
<path d="M332.807 222.634L328.138 221.621L335.947 275.711L340.875 278.552L332.807 222.634Z" fill="#C761B6"/>
<path opacity="0.1" d="M332.807 222.634L328.138 221.621L335.947 275.711L340.875 278.552L332.807 222.634Z" fill="#FAFAFA"/>
<path d="M376.574 193.662L381.234 194.675L332.807 222.634L328.138 221.621L376.574 193.662Z" fill="#C761B6"/>
<path opacity="0.6" d="M376.574 193.662L381.234 194.675L332.807 222.634L328.138 221.621L376.574 193.662Z" fill="#FAFAFA"/>
<path d="M347.254 222.217C347.004 221.049 346.499 219.95 345.776 218.999C345.053 218.047 344.13 217.267 343.071 216.713L332.807 222.674L334.338 233.266C335.31 233.761 336.372 234.057 337.46 234.137C338.548 234.217 339.642 234.08 340.677 233.733C342.999 232.96 344.954 231.358 346.168 229.233C347.381 227.108 347.768 224.61 347.254 222.217Z" fill="#C761B6"/>
<path opacity="0.2" d="M347.254 222.217C347.004 221.049 346.499 219.95 345.776 218.999C345.053 218.047 344.13 217.267 343.071 216.713L332.807 222.674L334.338 233.266C335.31 233.761 336.372 234.057 337.46 234.137C338.548 234.217 339.642 234.08 340.677 233.733C342.999 232.96 344.954 231.358 346.168 229.233C347.381 227.108 347.768 224.61 347.254 222.217Z" fill="black"/>
<path d="M358.213 224.552C358.521 222.932 359.356 222.823 360.081 224.304L367.215 238.929L372.659 207.622C372.938 206.002 373.792 205.863 374.567 207.314L386.202 229.063L389.312 250.573L348.953 273.892C348.873 273.455 356.117 235.501 358.213 224.552Z" fill="#C761B6"/>
<path opacity="0.2" d="M358.213 224.552C358.521 222.932 359.356 222.823 360.081 224.304L367.215 238.929L372.659 207.622C372.938 206.002 373.792 205.863 374.567 207.314L386.202 229.063L389.312 250.573L348.953 273.892C348.873 273.455 356.117 235.501 358.213 224.552Z" fill="black"/>
<path d="M380.459 196.265L388.229 250.067L341.65 276.963L333.881 223.161L380.459 196.265ZM381.234 194.676L332.807 222.634L340.875 278.552L389.312 250.593L381.234 194.676Z" fill="#C761B6"/>
<path opacity="0.7" d="M380.459 196.265L388.229 250.067L341.65 276.963L333.881 223.161L380.459 196.265ZM381.234 194.676L332.807 222.634L340.875 278.552L389.312 250.593L381.234 194.676Z" fill="#FAFAFA"/>
<path d="M357.021 287.872L348.943 231.954L397.379 203.995L405.447 259.913L357.021 287.872Z" fill="#C761B6"/>
<path opacity="0.7" d="M357.021 287.872L348.943 231.954L397.379 203.995L405.447 259.913L357.021 287.872Z" fill="#FAFAFA"/>
<path d="M348.943 231.954L344.283 230.941L352.092 285.03L357.021 287.872L348.943 231.954Z" fill="#C761B6"/>
<path opacity="0.1" d="M348.943 231.954L344.283 230.941L352.092 285.03L357.021 287.872L348.943 231.954Z" fill="#FAFAFA"/>
<path d="M392.709 202.982L397.379 203.995L348.943 231.954L344.283 230.941L392.709 202.982Z" fill="#C761B6"/>
<path opacity="0.6" d="M392.709 202.982L397.379 203.995L348.943 231.954L344.283 230.941L392.709 202.982Z" fill="#FAFAFA"/>
<path d="M363.389 231.537C363.141 230.366 362.637 229.265 361.914 228.312C361.191 227.359 360.267 226.577 359.207 226.023L348.943 231.984L350.473 242.575C351.446 243.07 352.507 243.366 353.596 243.447C354.684 243.527 355.777 243.389 356.812 243.042C359.132 242.27 361.086 240.669 362.299 238.546C363.513 236.424 363.901 233.928 363.389 231.537Z" fill="#C761B6"/>
<path opacity="0.2" d="M363.389 231.537C363.141 230.366 362.637 229.265 361.914 228.312C361.191 227.359 360.267 226.577 359.207 226.023L348.943 231.984L350.473 242.575C351.446 243.07 352.507 243.366 353.596 243.447C354.684 243.527 355.777 243.389 356.812 243.042C359.132 242.27 361.086 240.669 362.299 238.546C363.513 236.424 363.901 233.928 363.389 231.537Z" fill="black"/>
<path d="M374.358 233.872C374.667 232.252 375.501 232.143 376.226 233.623L383.36 248.259L388.795 216.961C389.073 215.332 389.938 215.203 390.713 216.653L402.347 238.402L405.447 259.913L365.089 283.212C365.009 282.775 372.262 244.821 374.358 233.872Z" fill="#C761B6"/>
<path opacity="0.2" d="M374.358 233.872C374.667 232.252 375.501 232.143 376.226 233.623L383.36 248.259L388.795 216.961C389.073 215.332 389.938 215.203 390.713 216.653L402.347 238.402L405.447 259.913L365.089 283.212C365.009 282.775 372.262 244.821 374.358 233.872Z" fill="black"/>
<path d="M396.604 205.585L404.374 259.387L357.796 286.282L350.046 232.481L396.624 205.585M397.399 203.995L348.943 231.974L357.001 287.872L405.427 259.913L397.359 203.995H397.399Z" fill="#C761B6"/>
<path opacity="0.7" d="M396.604 205.585L404.374 259.387L357.796 286.282L350.046 232.481L396.624 205.585M397.399 203.995L348.943 231.974L357.001 287.872L405.427 259.913L397.359 203.995H397.399Z" fill="#FAFAFA"/>
<path d="M377.19 299.527L425.627 271.568V234.279L377.19 262.238V299.527Z" fill="#37474F"/>
<path d="M377.2 262.238L328.764 234.279V271.558L377.2 299.536V262.238ZM356.454 259.585L349.499 255.611C348.801 255.218 348.204 254.667 347.756 254.003C347.307 253.339 347.02 252.58 346.916 251.786C346.916 250.494 348.069 250.126 349.499 250.941L356.454 254.915C357.151 255.31 357.747 255.861 358.195 256.525C358.643 257.188 358.932 257.947 359.038 258.741C359.038 260.032 357.875 260.41 356.454 259.585Z" fill="#455A64"/>
<path d="M425.632 234.275L377.198 262.239L389.304 283.208L437.739 255.244L425.632 234.275Z" fill="#455A64"/>
<path d="M328.764 243.599L324.73 245.934L328.764 234.279V243.599Z" fill="#263238"/>
<path d="M155.615 61.16L152.495 62.3622V55.4768C152.495 50.0221 148.133 48.7106 143.404 51.4429C138.674 54.1653 134.849 60.8123 134.849 66.2669V67.2605C134.183 67.0548 133.48 67.0034 132.791 67.1101C132.102 67.2168 131.447 67.4789 130.875 67.8765C129.078 69.0431 127.583 70.6179 126.511 72.4723C125.439 74.3268 124.82 76.4084 124.705 78.5474V79.0045L120.353 81.5182C119.17 82.2856 118.185 83.3221 117.479 84.5429C116.772 85.7637 116.365 87.1343 116.289 88.5427C116.289 91.1359 118.108 92.1791 120.353 90.8875L155.615 70.5293C156.799 69.7609 157.785 68.7229 158.492 67.5002C159.198 66.2776 159.605 64.905 159.678 63.4949C159.678 60.9216 157.86 59.8684 155.615 61.16Z" fill="#F0F0F0"/>
<path d="M225.035 327.287L224.856 321.276L229.824 320.421L230.112 325.548C230.351 326.74 231.195 327.128 231.414 327.803C231.633 328.479 228.016 335.354 225.989 336.875C223.962 338.395 220.664 336.447 220.346 335.722C220.028 334.997 223.058 335.533 223.555 334.48C224.231 333.069 225.035 327.287 225.035 327.287Z" fill="#FFA8A7"/>
<path d="M230.559 326.542C229.904 327.088 229.407 328.469 228.503 330.357C227.599 332.245 226.317 335.325 224.916 335.732C223.287 336.249 220.087 335.315 222.124 335.156C222.571 335.156 223.356 334.957 223.565 334.48C223.645 334.315 223.708 334.142 223.754 333.963C223.049 334.155 222.316 334.222 221.588 334.162C221.047 334.078 220.494 334.148 219.991 334.365C219.488 334.581 219.057 334.934 218.746 335.384C218.408 335.891 218.955 336.745 218.955 336.745C219.581 337.51 220.743 338.276 223.426 338.474C226.108 338.673 227.698 338.285 228.662 336.487C229.903 334.477 231.264 332.543 232.735 330.695C233.739 329.155 232.119 326.949 230.559 326.542Z" fill="#263238"/>
<path d="M223.724 334.073C223.565 334.48 222.382 334.609 221.796 334.689C221.21 334.768 220.922 335.315 221.876 335.623C223.525 335.792 224.34 334.043 223.724 334.073Z" fill="#FFA8A7"/>
<path d="M272.14 307.853L268.007 303.511L271.166 299.536L274.783 303.183C275.777 303.918 276.651 303.65 277.257 304.007C277.863 304.365 279.731 311.956 279.244 314.4C278.757 316.844 274.982 317.609 274.276 317.272C273.571 316.934 276.184 315.334 275.856 314.221C275.369 312.711 272.14 307.853 272.14 307.853Z" fill="#FFA8A7"/>
<path d="M275.777 303.63C275.648 304.475 276.184 305.836 276.77 307.843C277.356 309.85 278.42 312.999 277.655 314.251C276.78 315.712 273.77 317.142 275.19 315.672C275.498 315.344 275.975 314.678 275.816 314.211C275.766 314.033 275.7 313.861 275.618 313.695C275.212 314.306 274.704 314.844 274.117 315.285C273.657 315.577 273.29 315.996 273.059 316.49C272.828 316.985 272.744 317.535 272.816 318.076C272.895 318.683 273.869 318.961 273.869 318.961C274.863 319.12 276.224 318.911 278.36 317.292C280.496 315.672 281.43 314.311 280.943 312.324C280.541 309.996 280.272 307.648 280.138 305.289C279.89 303.511 277.207 302.895 275.777 303.63Z" fill="#263238"/>
<path d="M275.658 313.794C275.807 314.211 275.002 315.086 274.614 315.543C274.227 316 274.376 316.586 275.3 316.179C276.651 315.215 276.095 313.367 275.658 313.794Z" fill="#FFA8A7"/>
<path d="M238.657 215.799C239.979 211.208 239.144 208.417 238.13 204.442C236.263 197.169 234.494 189.867 234.494 189.867C234.494 189.867 233.173 162.166 233.113 159.642C233.043 156.662 232.467 154.993 232.219 152.469C232.08 151.038 231.056 150.889 231.156 150.939V156.542C230.239 155.724 229.374 154.852 228.562 153.929C227.629 152.807 226.685 152.936 226.387 153.502C226.088 154.069 227.629 155.171 228.374 156.632C229.213 158.091 230.146 159.495 231.166 160.835V175.977L227.191 178.282L226.416 192.748L232.596 215.252L238.657 215.799Z" fill="#FFA8A7"/>
<path d="M220.624 206.29L221.478 213.821L228.9 214.676L227.827 204.681L220.624 206.29Z" fill="#FFA8A7"/>
<path d="M182.719 148.018V203.935L231.156 175.977V120.049L182.719 148.018Z" fill="#C761B6"/>
<path opacity="0.7" d="M182.719 148.018V203.935L231.156 175.977V120.049L182.719 148.018Z" fill="#FAFAFA"/>
<path d="M182.719 162.802C184.359 163.438 186.475 163.17 188.78 161.808C193.996 158.828 198.229 151.465 198.229 145.434C198.351 143.477 197.697 141.55 196.411 140.069L182.719 148.018V162.802Z" fill="#C761B6"/>
<path opacity="0.2" d="M182.719 162.802C184.359 163.438 186.475 163.17 188.78 161.808C193.996 158.828 198.229 151.465 198.229 145.434C198.351 143.477 197.697 141.55 196.411 140.069L182.719 148.018V162.802Z" fill="black"/>
<path d="M204.051 164.183C204.528 162.603 205.472 162.543 206.157 164.034L212.993 178.937L223.187 140.377C223.604 138.787 224.31 138.777 224.747 140.377L231.156 163.14V175.986L193.927 197.477L204.051 164.183Z" fill="#C761B6"/>
<path opacity="0.2" d="M204.051 164.183C204.528 162.603 205.472 162.543 206.157 164.034L212.993 178.937L223.187 140.377C223.604 138.787 224.31 138.777 224.747 140.377L231.156 163.14V175.986L193.927 197.477L204.051 164.183Z" fill="black"/>
<path d="M230.162 121.778V175.43L183.713 202.256V148.604L230.162 121.778ZM231.156 120.049L182.719 148.018V203.935L231.156 175.977V120.049Z" fill="#C761B6"/>
<path opacity="0.7" d="M230.162 121.778V175.43L183.713 202.256V148.604L230.162 121.778ZM231.156 120.049L182.719 148.018V203.935L231.156 175.977V120.049Z" fill="#FAFAFA"/>
<path d="M182.719 203.936L178.685 201.611V145.683L182.719 148.018V203.936Z" fill="#C761B6"/>
<path opacity="0.1" d="M182.719 203.936L178.685 201.611V145.683L182.719 148.018V203.936Z" fill="#FAFAFA"/>
<path d="M178.685 145.683L227.112 117.724L231.156 120.049L182.719 148.018L178.685 145.683Z" fill="#C761B6"/>
<path opacity="0.6" d="M178.685 145.683L227.112 117.724L231.156 120.049L182.719 148.018L178.685 145.683Z" fill="#FAFAFA"/>
<path d="M238.657 215.799C238.528 216.444 238.23 217.716 237.663 219.862C236.571 223.837 234.921 229.47 234.216 231.348C234.216 231.427 234.156 231.497 234.126 231.557L237.057 236.326C237.057 236.326 235.07 238.76 229.248 240.459C223.426 242.158 216.332 238.71 216.332 238.71C216.332 238.71 214.831 230.841 214.553 228.635C214.553 228.506 214.553 228.308 214.474 228.079C214.414 227.612 214.354 227.195 214.265 226.807C214.265 226.807 214.265 226.738 214.265 226.698C214.156 226.221 214.076 225.585 213.937 224.88C213.779 223.664 213.335 222.503 212.643 221.491C211.951 220.479 211.029 219.645 209.953 219.057C209.128 218.61 192.009 211.834 189.307 210.185C188.616 209.828 188.012 209.324 187.538 208.707C187.064 208.091 186.732 207.377 186.564 206.618C186.187 205.575 180.98 188.386 180.364 186.677C179.843 185.253 178.968 183.984 177.821 182.991C176.47 181.54 175.993 181.213 175.575 179.911C175.158 178.609 175.685 178.291 175.893 177.646C176.182 176.751 175.893 176.126 176.052 175.45C176.301 174.605 176.817 174.387 176.947 174.009C177.011 173.339 177.127 172.674 177.294 172.022C177.565 171.394 178.051 170.883 178.665 170.581V172.569C179.411 175.619 182.759 177.119 183.186 176.901C183.613 176.682 184.239 174.913 185.173 174.178C186.107 173.443 187.399 173.512 186.922 174.436C186.654 174.973 186.038 176.97 185.72 177.854C185.402 178.739 184.458 180.597 184.667 182.017C184.935 183.915 193.758 203.478 193.758 203.478C193.758 203.478 203.346 206.618 210.956 208.983C215.676 210.453 219.561 211.357 219.561 211.357L221.915 210.94L222.8 210.781L234.265 208.675L234.683 208.595C235.059 208.546 235.439 208.546 235.815 208.595C236.342 208.751 236.83 209.015 237.247 209.371C237.665 209.727 238.003 210.167 238.24 210.662C238.979 212.272 239.127 214.091 238.657 215.799Z" fill="#FFA8A7"/>
<path d="M222.045 242.714C222.045 242.714 236.471 277.946 237.783 281.165C238.611 283.518 240.239 285.505 242.383 286.779C244.31 288.12 269.438 305.418 269.438 305.418C273.283 303.819 273.362 301.315 273.362 301.315C273.362 301.315 260.386 284.772 257.644 282.388C254.902 280.003 249.825 278.791 249.825 278.791L243.436 251.965C242.582 247.851 243.108 243.301 236.988 236.296L222.045 242.714Z" fill="#37474F"/>
<path d="M226.555 240.747C229.536 244.88 232.268 248.517 233.043 253.276C234.673 263.341 230.728 275.621 230.251 283.133C231.683 285.399 232.555 287.974 232.795 290.644C232.934 293.734 230.212 322.18 230.212 322.18C228.529 323.108 226.588 323.458 224.687 323.173C224.687 323.173 218.627 282.07 217.464 268.706C216.302 255.343 216.272 238.75 216.272 238.75L226.555 240.747Z" fill="#37474F"/>
<path d="M215.835 195.093C215.449 194.032 215.337 192.891 215.511 191.776C215.685 190.66 216.138 189.607 216.828 188.714C219.66 184.889 225.045 183.259 230.738 185.237C233.57 186.23 237.028 189.449 236.938 196.434C236.879 200.716 224.777 203.021 224.837 205.962L215.835 195.093Z" fill="#263238"/>
<path d="M215.467 196.692C215.467 196.692 213.669 199.166 213.877 199.454C214.259 199.73 214.686 199.935 215.139 200.061L215.467 196.692Z" fill="#F28F8F"/>
<path d="M220.982 188.833C219.302 189.608 216.401 191.049 215.398 197.06C214.404 203.24 215.398 205.267 216.183 206.121C216.729 206.698 219.809 206.837 221.359 206.429C223.346 205.913 227.718 204.442 229.814 201.293C232.278 197.626 232.974 192.629 230.41 190.542C229.11 189.486 227.564 188.775 225.916 188.476C224.267 188.177 222.57 188.3 220.982 188.833Z" fill="#FFA8A7"/>
<path d="M216.272 238.72L237.028 236.326C238.488 238.72 241.995 242.814 241.25 246.748C240.346 251.507 237.783 254.856 229.943 257.191" fill="#37474F"/>
<path d="M236.779 222.913C235.726 226.817 234.862 229.57 234.196 231.348C234.196 231.428 234.136 231.497 234.106 231.557L237.038 236.326C237.038 236.326 235.05 238.76 229.228 240.459C223.406 242.158 216.312 238.71 216.312 238.71C216.312 238.71 214.811 230.841 214.533 228.636C214.533 228.506 214.533 228.308 214.454 228.079C214.374 227.851 214.325 227.264 214.245 226.807C214.245 226.807 214.245 226.738 214.245 226.698C214.116 225.913 213.977 225.148 213.917 224.88C221.399 221.542 219.64 211.328 219.64 211.328L221.995 210.91L222.879 210.751C226.307 210.145 228.751 209.688 231.821 209.082C231.941 209.052 238.488 216.554 236.779 222.913Z" fill="#FAFAFA"/>
<path d="M234.792 229.54C232.413 231.062 229.902 232.368 227.291 233.445C229.682 233.395 232.022 232.746 234.097 231.557L234.792 229.54Z" fill="#F0F0F0"/>
<path d="M220.485 189.072C220.485 189.072 218.806 194.666 220.356 198.322C220.356 198.322 221.458 196.156 223.336 196.881C225.214 197.607 224.936 200.14 223.336 201.372C222.937 201.728 222.445 201.963 221.918 202.051C221.39 202.139 220.849 202.076 220.356 201.869C220.437 203.684 221.099 205.425 222.243 206.837C224.21 207.507 226.326 207.608 228.347 207.128C230.369 206.648 232.214 205.607 233.669 204.124C238.468 199.425 238.27 190.612 231.603 188.058C224.936 185.505 220.485 189.072 220.485 189.072Z" fill="#263238"/>
<path d="M232.557 268.398L234.256 254.737C234.256 254.737 239.223 252.849 241.359 249.928C240.399 252.461 238.66 254.625 236.392 256.108C236.054 256.535 233.411 270.544 233.411 270.544L232.557 268.398Z" fill="#263238"/>
<path d="M240.088 194.685C237.783 195.679 236.044 193.851 234.782 190.93C233.52 188.009 233.242 185.088 235.537 184.094C237.832 183.1 240.604 184.968 241.856 187.889C243.108 190.811 242.383 193.692 240.088 194.685Z" fill="#263238"/>
<path d="M231.156 156.542C230.474 156.148 229.889 155.604 229.447 154.953C228.751 153.959 227.758 153.482 227.161 153.82C226.724 154.058 227.241 154.814 227.569 155.44C228.052 156.653 228.722 157.783 229.556 158.788C230.48 159.642 231.146 159.851 231.146 160.835C231.653 160.261 231.92 159.514 231.891 158.748C231.882 157.954 231.625 157.183 231.156 156.542Z" fill="#FFA8A7"/>
</svg>
