<svg width="25" height="19" viewBox="0 0 25 19" fill="none" xmlns="http://www.w3.org/2000/svg">
<path d="M25 6.74863C25 7.9022 23.9917 8.88857 22.8125 8.88857H17.937C18.7348 9.721 18.8328 11.3186 17.6294 12.3526C18.327 13.4673 17.7342 14.9414 16.8262 15.3954C17.2644 17.7948 15.7546 18.875 13.2812 18.875C13.1472 18.875 12.633 18.8651 12.5 18.8655C9.47407 18.8737 8.74541 17.3486 6.45845 16.9946C5.88848 16.9064 5.46875 16.414 5.46875 15.8372V7.46196L5.46885 7.46191C5.46938 6.56514 5.98677 5.70952 6.85869 5.32104C8.26914 4.68657 11.5175 2.92661 12.1094 1.54551C12.4901 0.657129 13.1535 0.125391 14.0625 0.125C15.7335 0.124317 16.8824 1.83877 16.2167 3.39199C16.0418 3.80015 15.8109 4.20596 15.5257 4.60869H22.8125C23.9575 4.60869 25 5.61177 25 6.74863ZM4.6875 6.76562V16.1406C4.6875 16.7878 4.16284 17.3125 3.51562 17.3125H1.17188C0.524658 17.3125 0 16.7878 0 16.1406V6.76562C0 6.11841 0.524658 5.59375 1.17188 5.59375H3.51562C4.16284 5.59375 4.6875 6.11841 4.6875 6.76562ZM3.32031 14.9688C3.32031 14.4294 2.88311 13.9922 2.34375 13.9922C1.80439 13.9922 1.36719 14.4294 1.36719 14.9688C1.36719 15.5081 1.80439 15.9453 2.34375 15.9453C2.88311 15.9453 3.32031 15.5081 3.32031 14.9688Z" fill="#96E3C5"/>
</svg>
