<svg width="396" height="396" viewBox="0 0 396 396" fill="none" xmlns="http://www.w3.org/2000/svg">
<path d="M156.75 107.25V156.75H107.25V107.25H156.75ZM181.5 82.5H82.5V181.5H181.5V82.5ZM156.75 239.25V288.75H107.25V239.25H156.75ZM181.5 214.5H82.5V313.5H181.5V214.5ZM288.75 107.25V156.75H239.25V107.25H288.75ZM313.5 82.5H214.5V181.5H313.5V82.5ZM214.5 214.5H239.25V239.25H214.5V214.5ZM239.25 239.25H264V264H239.25V239.25ZM264 214.5H288.75V239.25H264V214.5ZM214.5 264H239.25V288.75H214.5V264ZM239.25 288.75H264V313.5H239.25V288.75ZM264 264H288.75V288.75H264V264ZM288.75 239.25H313.5V264H288.75V239.25ZM288.75 288.75H313.5V313.5H288.75V288.75ZM346.5 115.5C337.425 115.5 330 108.075 330 99V66H297C287.925 66 280.5 58.575 280.5 49.5C280.5 40.425 287.925 33 297 33H346.5C355.575 33 363 40.425 363 49.5V99C363 108.075 355.575 115.5 346.5 115.5ZM363 346.5V297C363 287.925 355.575 280.5 346.5 280.5C337.425 280.5 330 287.925 330 297V330H297C287.925 330 280.5 337.425 280.5 346.5C280.5 355.575 287.925 363 297 363H346.5C355.575 363 363 355.575 363 346.5ZM49.5 363H99C108.075 363 115.5 355.575 115.5 346.5C115.5 337.425 108.075 330 99 330H66V297C66 287.925 58.575 280.5 49.5 280.5C40.425 280.5 33 287.925 33 297V346.5C33 355.575 40.425 363 49.5 363ZM33 49.5V99C33 108.075 40.425 115.5 49.5 115.5C58.575 115.5 66 108.075 66 99V66H99C108.075 66 115.5 58.575 115.5 49.5C115.5 40.425 108.075 33 99 33H49.5C40.425 33 33 40.425 33 49.5Z" fill="url(#paint0_linear_126_677)"/>
<defs>
<linearGradient id="paint0_linear_126_677" x1="198" y1="33" x2="198" y2="363" gradientUnits="userSpaceOnUse">
<stop stop-color="#C761B6"/>
<stop offset="1" stop-color="#6743BF"/>
</linearGradient>
</defs>
</svg>
