<svg width="46" height="34" viewBox="0 0 46 34" fill="none" xmlns="http://www.w3.org/2000/svg">
<path d="M18.5078 0.40625L18.4492 10.4844C18.4492 14.4688 17.4531 18.5703 15.4609 22.7891C13.4688 27.0078 10.832 30.4844 7.55078 33.2188L-0.0078125 28.8242C1.08594 27.0664 2.08203 25.2891 2.98047 23.4922C3.87891 21.6953 4.60156 19.7812 5.14844 17.75C5.69531 15.7188 5.96875 13.4727 5.96875 11.0117V0.40625H18.5078ZM45.3438 0.40625L45.2852 10.4844C45.2852 14.4688 44.2891 18.5703 42.2969 22.7891C40.3047 27.0078 37.668 30.4844 34.3867 33.2188L26.8281 28.8242C27.9219 27.0664 28.918 25.2891 29.8164 23.4922C30.7148 21.6953 31.4375 19.7812 31.9844 17.75C32.5312 15.7188 32.8047 13.4727 32.8047 11.0117V0.40625H45.3438Z" fill="white"/>
</svg>
